<?xml version="1.0" encoding="UTF-8"?>
<!-- Created with Inkscape (http://www.inkscape.org/) -->
<svg width="4.7625mm" height="4.7625mm" version="1.1" viewBox="0 0 4.7625 4.7625" xml:space="preserve" xmlns="http://www.w3.org/2000/svg"><g ><g stroke-linejoin="round"><path d="m1.7301 3.9695v0.25h0.75v-0.25z" stroke-dasharray="0.75, 0.25"/><path d="m1.3543 3.9693c-0.08078 0.08522-0.16503 0.16725-0.24804 0.25011h0.37388v-0.25011z" stroke-dasharray="0.75, 0.25"/><path d="m2.7301 3.9695v0.25h0.75v-0.25z" stroke-dasharray="0.1875, 0.0625" stroke-width=".25"/><path d="m3.7301 3.9695v0.25h0.4697v-0.25z" stroke-dasharray="0.148383, 0.0494609" stroke-width=".19784"/></g><path d="m3.1533 1.2454c-3.5e-4 3.5e-4 -7.205e-4 7.126e-4 -0.00103 0.00103l-2.5155 2.5673c-0.05166 0.05166-0.05166 0.13541 0 0.18707l0.18707 0.18707c0.05166 0.05166 0.13599 0.05223 0.18707 0l2.5155-2.5673c0.0027-0.0027 0.00483-0.00589 0.00723-0.00879-0.17669-0.055705-0.31815-0.19263-0.38033-0.36638z" stroke-width="1.065"/><path d="m2.7024 2.5958-0.20309 0.20722c0.21527 0.30512 0.35634 0.66801 0.39532 1.0625h0.28784c-0.04177-0.47314-0.21384-0.90907-0.48007-1.2697z" stroke-linejoin="round"/><path d="m4.1404 0.93221c0.018261 2.12e-6 0.033066 0.014807 0.033068 0.033068v0.16389c-2.8e-6 0.01826-0.014807 0.033065-0.033068 0.033068l-0.31496 1e-7v0.31496c-4.2e-6 0.018262-0.014807 0.033065-0.033068 0.033068h-0.16389c-0.018262-3e-6 -0.033066-0.014807-0.033068-0.033068l-2e-7 -0.31496h-0.31496c-0.018261-2.3e-6 -0.033066-0.014807-0.033068-0.033068v-0.16389c2.4e-6 -0.018262 0.014806-0.033066 0.033068-0.033068l0.31496 1e-8v-0.31496c2.4e-6 -0.018262 0.014806-0.033065 0.033068-0.033068h0.16389c0.018261 2.34e-6 0.033066 0.014807 0.033068 0.033068v0.31496z" stroke-width=".13229"/></g></svg>
