<svg width="19" height="18" viewBox="0 0 19 18" fill="none" xmlns="http://www.w3.org/2000/svg">
<path d="M10.5 8.04215V3.49915C10.5 3.36654 10.4473 3.23936 10.3536 3.14559C10.2598 3.05182 10.1326 2.99915 10 2.99915H9C8.86739 2.99915 8.74021 3.05182 8.64645 3.14559C8.55268 3.23936 8.5 3.36654 8.5 3.49915V8.79215C8.50003 8.92474 8.55272 9.0519 8.6465 9.14565L11.45 11.9491C11.4964 11.9956 11.5515 12.0325 11.6122 12.0576C11.6728 12.0828 11.7378 12.0958 11.8035 12.0958C11.8691 12.0958 11.9342 12.0829 11.9948 12.0578C12.0555 12.0327 12.1107 11.9959 12.1571 11.9495L12.825 11.2811C12.9187 11.1874 12.9714 11.0602 12.9714 10.9276C12.9714 10.7951 12.9187 10.6679 12.825 10.5741L10.6465 8.39515C10.5528 8.30152 10.5002 8.17457 10.5 8.04215Z"/>
<path d="M9.5 0.999146C13.9183 0.999146 17.5 4.58085 17.5 8.99915C17.5 13.4174 13.9183 16.9991 9.5 16.9991C5.08171 16.9991 1.50002 13.4174 1.5 8.99915C1.5 4.58085 5.0817 0.999146 9.5 0.999146ZM9.5 2.40833C5.85977 2.40833 2.90918 5.35892 2.90918 8.99915C2.9092 12.6393 5.85978 15.5899 9.5 15.5899C13.1402 15.5899 16.0908 12.6393 16.0908 8.99915C16.0908 5.35892 13.1402 2.40833 9.5 2.40833Z" />
</svg>
