<svg width="19" height="18" viewBox="0 0 19 18" fill="none" xmlns="http://www.w3.org/2000/svg">
<path d="M13.9844 7.90625C13.2674 7.90625 12.5666 8.11885 11.9704 8.51717C11.3743 8.91549 10.9097 9.48164 10.6353 10.144C10.3609 10.8064 10.2892 11.5353 10.429 12.2385C10.5689 12.9416 10.9141 13.5875 11.4211 14.0945C11.9281 14.6015 12.574 14.9467 13.2772 15.0866C13.9804 15.2265 14.7092 15.1547 15.3716 14.8803C16.034 14.6059 16.6001 14.1413 16.9985 13.5452C17.3968 12.9491 17.6094 12.2482 17.6094 11.5312C17.6094 11.0552 17.5156 10.5838 17.3334 10.144C17.1513 9.70422 16.8843 9.3046 16.5476 8.96799C16.211 8.63138 15.8114 8.36436 15.3716 8.18219C14.9318 8.00001 14.4604 7.90625 13.9844 7.90625ZM13.4465 9.13758C13.4465 9.11087 13.5216 9.06908 13.5761 9.04825C13.7098 9.00837 13.8496 8.99347 13.9887 9.0043C14.135 8.99672 14.2817 9.01154 14.4235 9.04825C14.4798 9.06909 14.5616 9.11709 14.5616 9.13758V9.83078C14.545 10.63 14.4839 11.4276 14.3785 12.22C14.3785 12.2405 14.3646 12.3438 14.2969 12.3438H13.7102C13.6653 12.3438 13.6371 12.2468 13.6263 12.22C13.604 12.0296 13.4465 10.5848 13.4465 9.83078L13.4465 9.13758ZM14.0312 14.1875C13.9088 14.1874 13.7892 14.1511 13.6874 14.083C13.5856 14.015 13.5063 13.9183 13.4595 13.8051C13.4127 13.692 13.4005 13.5676 13.4244 13.4475C13.4483 13.3274 13.5073 13.2171 13.5938 13.1306C13.6804 13.044 13.7907 12.9851 13.9108 12.9612C14.0309 12.9373 14.1553 12.9496 14.2684 12.9964C14.3815 13.0432 14.4782 13.1226 14.5463 13.2243C14.6143 13.3261 14.6506 13.4458 14.6507 13.5682C14.6507 13.6495 14.6347 13.7301 14.6036 13.8053C14.5725 13.8804 14.5268 13.9487 14.4693 14.0062C14.4118 14.0637 14.3435 14.1093 14.2683 14.1404C14.1931 14.1716 14.1126 14.1875 14.0312 14.1875Z" />
<path d="M14.3441 7.01298C14.2305 7.00437 14.1158 7.00003 14 6.99998C13.1852 7.0001 12.3856 7.22144 11.6867 7.64038C10.9878 8.05932 10.4158 8.66015 10.0316 9.37876C9.64742 10.0974 9.46555 10.9068 9.50539 11.7207C9.54523 12.5345 9.80527 13.3223 10.2578 14H2.35911C1.83984 13.974 1.35215 13.7428 1.00334 13.3573C0.65452 12.9717 0.473143 12.4634 0.499107 11.9442L0.500007 11.9272C0.536762 11.3884 0.761858 10.8797 1.13589 10.4901C1.50992 10.1006 2.00905 9.855 2.54591 9.79638C2.48033 9.53899 2.45779 9.27253 2.47921 9.00778C2.50271 8.18147 2.85246 7.39809 3.45198 6.82895C4.05149 6.25981 4.85199 5.95122 5.67841 5.97068C6.03305 5.97091 6.38599 6.01987 6.72731 6.11618C6.93903 5.25793 7.4251 4.49224 8.11169 3.93544C8.79827 3.37863 9.64783 3.06116 10.5313 3.03123C11.4977 2.98488 12.443 3.32433 13.1591 3.97491C13.8753 4.62549 14.3036 5.5339 14.35 6.50032C14.3551 6.60561 14.3555 6.71097 14.3515 6.81638C14.3515 6.88237 14.3489 6.94789 14.3441 7.01298Z" />
</svg>
