<svg width="19" height="18" viewBox="0 0 19 18" fill="none" xmlns="http://www.w3.org/2000/svg">
<path d="M2.75 15.75C2.55109 15.75 2.36032 15.671 2.21967 15.5303C2.07902 15.3897 2 15.1989 2 15C2 14.8011 2.07902 14.6103 2.21967 14.4697C2.36032 14.329 2.55109 14.25 2.75 14.25V4.5C2.75 3.90326 2.98705 3.33097 3.40901 2.90901C3.83097 2.48705 4.40326 2.25 5 2.25H9.5C10.0967 2.25 10.669 2.48705 11.091 2.90901C11.5129 3.33097 11.75 3.90326 11.75 4.5V7.5C12.3467 7.5 12.919 7.73705 13.341 8.15901C13.7629 8.58097 14 9.15326 14 9.75V12C14 12.0995 14.0395 12.1948 14.1098 12.2652C14.1802 12.3355 14.2755 12.375 14.375 12.375C14.4745 12.375 14.5698 12.3355 14.6402 12.2652C14.7105 12.1948 14.75 12.0995 14.75 12V7.5C14.3522 7.5 13.9706 7.34196 13.6893 7.06066C13.408 6.77936 13.25 6.39782 13.25 6V5.56125L12.7197 5.03025C12.5906 4.90111 12.513 4.72928 12.5016 4.54701C12.4901 4.36474 12.5456 4.18455 12.6575 4.04025L12.7197 3.96975C12.8604 3.82915 13.0511 3.75016 13.25 3.75016C13.4489 3.75016 13.6396 3.82915 13.7803 3.96975L16.0325 6.22125L16.1038 6.30525L16.1248 6.33525L16.1578 6.39L16.1968 6.4725L16.22 6.54L16.235 6.597L16.244 6.6555L16.25 6.75V12C16.25 12.4973 16.0525 12.9742 15.7008 13.3258C15.3492 13.6775 14.8723 13.875 14.375 13.875C13.8777 13.875 13.4008 13.6775 13.0492 13.3258C12.6975 12.9742 12.5 12.4973 12.5 12V9.75C12.5 9.55109 12.421 9.36032 12.2803 9.21967C12.1397 9.07902 11.9489 9 11.75 9V14.25C11.9489 14.25 12.1397 14.329 12.2803 14.4697C12.421 14.6103 12.5 14.8011 12.5 15C12.5 15.1989 12.421 15.3897 12.2803 15.5303C12.1397 15.671 11.9489 15.75 11.75 15.75H2.75ZM9.5 3.75H5C4.80109 3.75 4.61032 3.82902 4.46967 3.96967C4.32902 4.11032 4.25 4.30109 4.25 4.5V7.5H10.25V4.5C10.25 4.30109 10.171 4.11032 10.0303 3.96967C9.88968 3.82902 9.69891 3.75 9.5 3.75Z"/>
</svg>
