<svg width="19" height="18" viewBox="0 0 19 18" fill="none" xmlns="http://www.w3.org/2000/svg">
<path d="M15.5 11.8488V15H3.5V4H10.5426C10.6752 4 10.8024 3.94732 10.8961 3.85355C10.9899 3.75979 11.0426 3.63261 11.0426 3.5V2.5C11.0426 2.36739 10.9899 2.24022 10.8961 2.14645C10.8024 2.05268 10.6752 2 10.5426 2L2 2C1.86739 2 1.74021 2.05268 1.64645 2.14645C1.55268 2.24021 1.5 2.36739 1.5 2.5V16.5C1.5 16.6326 1.55268 16.7598 1.64645 16.8536C1.74021 16.9473 1.86739 17 2 17H17C17.1326 17 17.2598 16.9473 17.3536 16.8536C17.4473 16.7598 17.5 16.6326 17.5 16.5V11.8488C17.5 11.7162 17.4473 11.589 17.3536 11.4952C17.2598 11.4015 17.1326 11.3488 17 11.3488H16C15.8674 11.3488 15.7402 11.4015 15.6464 11.4952C15.5527 11.589 15.5 11.7162 15.5 11.8488Z" />
<path d="M13.5266 2.40002V5.00002C8.00338 5.01706 6.50502 6.54041 6.45612 11.75C6.45612 11.8826 6.5088 12.0098 6.60257 12.1036C6.69634 12.1973 6.82352 12.25 6.95612 12.25H7.95612C8.08873 12.25 8.21591 12.1973 8.30968 12.1036C8.40344 12.0098 8.45612 11.8826 8.45612 11.75C8.53731 7.76536 9.91146 7.02167 13.5266 7.00002V9.60002C13.5266 9.70611 13.5687 9.80785 13.6438 9.88286C13.7188 9.95788 13.8205 10 13.9266 10C14.0238 10.0004 14.1176 9.96474 14.1901 9.90002L17.4546 6.17552C17.5004 6.12879 17.5261 6.06596 17.5261 6.00052C17.5261 5.93508 17.5004 5.87225 17.4546 5.82552L14.1926 2.10002C14.1195 2.03472 14.0246 1.99906 13.9266 2.00002C13.8205 2.00002 13.7188 2.04216 13.6438 2.11718C13.5687 2.19219 13.5266 2.29393 13.5266 2.40002Z" />
</svg>
