<svg width="19" height="18" viewBox="0 0 19 18" fill="none" xmlns="http://www.w3.org/2000/svg">
<path d="M13.7231 0.742126C12.9692 0.742126 12.2461 1.04164 11.713 1.57478C11.1798 2.10792 10.8803 2.83101 10.8803 3.58498C10.8803 5.15494 13.7231 8.73764 13.7231 8.73764C13.7231 8.73764 16.566 5.15494 16.566 3.58498C16.566 2.83101 16.2665 2.10792 15.7333 1.57478C15.2002 1.04164 14.4771 0.742126 13.7231 0.742126ZM13.7231 4.70435C13.5053 4.70435 13.2923 4.63974 13.1111 4.51869C12.93 4.39765 12.7888 4.2256 12.7054 4.02431C12.622 3.82302 12.6002 3.60152 12.6427 3.38783C12.6852 3.17414 12.7901 2.97785 12.9442 2.82379C13.0983 2.66973 13.2945 2.56481 13.5082 2.52231C13.7219 2.4798 13.9434 2.50162 14.1447 2.58499C14.346 2.66837 14.5181 2.80957 14.6391 2.99073C14.7601 3.17188 14.8248 3.38487 14.8248 3.60274C14.8248 3.89491 14.7087 4.1751 14.5021 4.3817C14.2955 4.58829 14.0153 4.70435 13.7231 4.70435Z" />
<path fill-rule="evenodd" clip-rule="evenodd" d="M12.6528 13.1894C13.0295 13.0597 13.4414 12.992 13.8587 12.9911C14.4433 12.9909 15.0136 13.1211 15.4917 13.3637C15.9698 13.6063 16.3323 13.9496 16.5295 14.3465C16.7267 14.7434 16.749 15.1746 16.5934 15.581C16.4379 15.9874 16.1119 16.3493 15.6603 16.617C15.2086 16.8846 14.6533 17.0451 14.0704 17.0764C13.4875 17.1077 12.9053 17.0083 12.4037 16.7918C11.9021 16.5752 11.5056 16.2522 11.2683 15.8668C11.031 15.4815 10.9646 15.0527 11.0782 14.6391L6.97155 13.4881C6.8414 13.5953 6.69633 13.6927 6.53862 13.7785C6.39233 13.8575 6.23579 13.926 6.07119 13.9831C6.06358 13.9858 6.05625 13.9889 6.04891 13.992C6.03984 13.9958 6.03075 13.9997 6.02109 14.0029C5.86957 14.0517 5.71236 14.0909 5.5513 14.1198C5.53577 14.1227 5.52081 14.1265 5.50587 14.1303C5.48762 14.135 5.46938 14.1396 5.45015 14.1426C5.03565 14.209 4.60579 14.2074 4.19229 14.1379C3.77878 14.0684 3.39219 13.9328 3.06104 13.7411C2.72988 13.5495 2.46262 13.3066 2.27898 13.0305C2.09534 12.7544 2 12.452 2 12.1458C2 11.8395 2.09534 11.5372 2.27898 11.2611C2.46262 10.9849 2.72988 10.7421 3.06104 10.5504C3.39219 10.3588 3.77878 10.2232 4.19229 10.1537C4.60579 10.0842 5.03565 10.0826 5.45015 10.1489C5.46857 10.152 5.48632 10.1564 5.50411 10.1609C5.51965 10.1648 5.53521 10.1687 5.5513 10.1717C5.71236 10.2007 5.86957 10.2398 6.02109 10.2887C6.02983 10.2916 6.0382 10.2952 6.04665 10.2987C6.05463 10.3021 6.06269 10.3055 6.07119 10.3084C6.23707 10.3663 6.39486 10.4354 6.5424 10.515C6.69886 10.6002 6.84267 10.6969 6.97155 10.8034L10.9354 9.13302C10.801 8.65215 10.9145 8.15244 11.2546 7.72765C11.464 7.46614 11.6016 7.4184 11.9809 7.18058C12.2025 7.50966 12.4518 7.80189 12.6453 8.07041C12.3922 8.28458 12.3102 8.43036 12.298 8.7379C12.298 8.94018 12.3811 9.13791 12.5369 9.3061C12.6927 9.47428 12.9142 9.60537 13.1733 9.68278C13.4324 9.76018 13.7174 9.78044 13.9925 9.74098C14.2675 9.70151 14.5202 9.60411 14.7185 9.46108C14.9168 9.31805 15.0518 9.13582 15.1065 8.93743C15.1612 8.73904 15.1332 8.5334 15.0258 8.34652C14.9213 8.16452 14.8739 8.16468 14.7882 8.07041C14.9762 7.80981 15.2513 7.49997 15.4671 7.18058C15.8227 7.39911 15.9538 7.51053 16.1872 7.8593C16.4829 8.30105 16.5449 8.80545 16.3616 9.27784C16.1782 9.75022 15.7622 10.1581 15.1916 10.425C14.6209 10.6918 13.9349 10.7993 13.2622 10.7272C12.5895 10.6551 11.9764 10.4084 11.538 10.0334L7.60724 11.6932C7.70819 11.9916 7.70819 12.303 7.60724 12.6014L11.6808 13.7411C11.9442 13.5076 12.2762 13.3191 12.6528 13.1894ZM13.8587 16.0593C13.5783 16.0593 13.3042 15.9993 13.071 15.8869C12.8378 15.7746 12.6561 15.6148 12.5488 15.4279C12.4414 15.2411 12.4134 15.0354 12.4681 14.837C12.5228 14.6387 12.6578 14.4564 12.8561 14.3134C13.0544 14.1704 13.3071 14.073 13.5821 14.0335C13.8571 13.994 14.1422 14.0143 14.4013 14.0917C14.6604 14.1691 14.8819 14.3002 15.0377 14.4684C15.1935 14.6366 15.2766 14.8343 15.2766 15.0366C15.2766 15.3078 15.1272 15.5679 14.8613 15.7597C14.5954 15.9515 14.2348 16.0593 13.8587 16.0593Z"/>

</svg>
