<svg width="19" height="18" viewBox="0 0 19 18" fill="none" xmlns="http://www.w3.org/2000/svg">
<path d="M9.06351 1.28953L0.700007 16.256C0.657479 16.3321 0.635571 16.418 0.636455 16.5051C0.637338 16.5922 0.660983 16.6776 0.705045 16.7528C0.749107 16.828 0.812055 16.8904 0.88765 16.9337C0.963244 16.9771 1.04886 17 1.13601 17H17.864C17.9512 17 18.0368 16.9771 18.1124 16.9337C18.188 16.8904 18.2509 16.828 18.295 16.7528C18.339 16.6776 18.3627 16.5922 18.3636 16.5051C18.3644 16.418 18.3425 16.3321 18.3 16.256L9.93651 1.28953C9.89312 1.21186 9.82979 1.14718 9.75306 1.10215C9.67633 1.05712 9.58897 1.03339 9.50001 1.03339C9.41104 1.03339 9.32369 1.05712 9.24695 1.10215C9.17022 1.14718 9.1069 1.21186 9.06351 1.28953ZM10.5 14.75C10.5 14.8163 10.4737 14.8799 10.4268 14.9268C10.3799 14.9737 10.3163 15 10.25 15H8.75001C8.6837 15 8.62011 14.9737 8.57323 14.9268C8.52635 14.8799 8.50001 14.8163 8.50001 14.75V13.25C8.50001 13.1837 8.52635 13.1201 8.57323 13.0732C8.62011 13.0264 8.6837 13 8.75001 13H10.25C10.3163 13 10.3799 13.0264 10.4268 13.0732C10.4737 13.1201 10.5 13.1837 10.5 13.25V14.75ZM10.5 11.75C10.5 11.8163 10.4737 11.8799 10.4268 11.9268C10.3799 11.9737 10.3163 12 10.25 12H8.75001C8.6837 12 8.62011 11.9737 8.57323 11.9268C8.52635 11.8799 8.50001 11.8163 8.50001 11.75V5.75003C8.50001 5.68372 8.52635 5.62013 8.57323 5.57325C8.62011 5.52637 8.6837 5.50003 8.75001 5.50003H10.25C10.3163 5.50003 10.3799 5.52637 10.4268 5.57325C10.4737 5.62013 10.5 5.68372 10.5 5.75003V11.75Z"/>
</svg>
