
    <svg display="none" width="0" height="0" version="1.1" xmlns="http://www.w3.org/2000/svg" xmlns:xlink="http://www.w3.org/1999/xlink">
      <defs><symbol id="icon-add-circle-graphic" viewBox="0 0 18 18"><path d="M9,1a8,8,0,1,0,8,8A8,8,0,0,0,9,1Zm5,8.5a.5.5,0,0,1-.5.5H10v3.5a.5.5,0,0,1-.5.5h-1a.5.5,0,0,1-.5-.5V10H4.5A.5.5,0,0,1,4,9.5v-1A.5.5,0,0,1,4.5,8H8V4.5A.5.5,0,0,1,8.5,4h1a.5.5,0,0,1,.5.5V8h3.5a.5.5,0,0,1,.5.5Z"/></symbol><symbol id="icon-add-layer" viewBox="0 0 18 18"><path d="m9 1.1641a0.49 0.49 0 0 0-0.21289 0.048828l-7.3438 3.7363c-0.1205 0.0615-0.1205 0.16311 0 0.22461l3.7031 1.8906-3.7031 1.8887c-0.1205 0.0615-0.1205 0.16116 0 0.22266l3.6992 1.8828-3.6992 1.8945c-0.1205 0.0615-0.1205 0.16116 0 0.22266l7.3438 3.7383a0.4855 0.4855 0 0 0 0.11523 0.027344c-0.35911-0.47745-0.62899-0.9849-0.81836-1.5078l-4.6562-2.3691 2.8164-1.4434 1.5898 0.80859c0.47282-2.6107 2.6715-4.8711 5.8027-4.8711 0.064227 0 0.12768 0.0038172 0.19141 0.0058593l-0.98828-0.50391 3.7168-1.8848c0.1205-0.0615 0.1205-0.16116 0-0.22266l-7.3438-3.7402a0.49 0.49 0 0 0-0.21289-0.048828zm0 1.0625 5.5723 2.8379-2.834 1.4355-2.5254-1.2852a0.468 0.468 0 0 0-0.42578 0l-2.5371 1.291-2.8223-1.4414 5.5723-2.8379z"/><path d="m13.55 9.0527a4.45 4.45 0 1 0 4.45 4.45 4.45 4.45 0 0 0-4.45-4.45zm2.45 5.2h-1.7v1.7a0.25 0.25 0 0 1-0.25 0.25h-1a0.25 0.25 0 0 1-0.25-0.25v-1.7h-1.7a0.25 0.25 0 0 1-0.25-0.25v-1a0.25 0.25 0 0 1 0.25-0.25h1.7v-1.7a0.25 0.25 0 0 1 0.25-0.25h1a0.25 0.25 0 0 1 0.25 0.25v1.7h1.7a0.25 0.25 0 0 1 0.25 0.25v1a0.25 0.25 0 0 1-0.25 0.25z"/></symbol><symbol id="icon-add" viewBox="0 0 18 18"><path d="M14.5,8H10V3.5A.5.5,0,0,0,9.5,3h-1a.5.5,0,0,0-.5.5V8H3.5a.5.5,0,0,0-.5.5v1a.5.5,0,0,0,.5.5H8v4.5a.5.5,0,0,0,.5.5h1a.5.5,0,0,0,.5-.5V10h4.5a.5.5,0,0,0,.5-.5v-1A.5.5,0,0,0,14.5,8Z"/></symbol><symbol id="icon-angled-line" viewBox="0 0 4.7625 4.7625"><g><g stroke-linejoin="round"><path stroke-dasharray="0.75, 0.25" d="m1.7301 3.9695v0.25h0.75v-0.25z"/><path stroke-dasharray="0.75, 0.25" d="m1.3543 3.9693c-0.08078 0.08522-0.16503 0.16725-0.24804 0.25011h0.37388v-0.25011z"/><path stroke-dasharray="0.1875, 0.0625" stroke-width=".25" d="m2.7301 3.9695v0.25h0.75v-0.25z"/><path stroke-dasharray="0.148383, 0.0494609" stroke-width=".19784" d="m3.7301 3.9695v0.25h0.4697v-0.25z"/></g><path stroke-width="1.065" d="m3.1533 1.2454c-3.5e-4 3.5e-4 -7.205e-4 7.126e-4 -0.00103 0.00103l-2.5155 2.5673c-0.05166 0.05166-0.05166 0.13541 0 0.18707l0.18707 0.18707c0.05166 0.05166 0.13599 0.05223 0.18707 0l2.5155-2.5673c0.0027-0.0027 0.00483-0.00589 0.00723-0.00879-0.17669-0.055705-0.31815-0.19263-0.38033-0.36638z"/><path stroke-linejoin="round" d="m2.7024 2.5958-0.20309 0.20722c0.21527 0.30512 0.35634 0.66801 0.39532 1.0625h0.28784c-0.04177-0.47314-0.21384-0.90907-0.48007-1.2697z"/><path stroke-width=".13229" d="m4.1404 0.93221c0.018261 2.12e-6 0.033066 0.014807 0.033068 0.033068v0.16389c-2.8e-6 0.01826-0.014807 0.033065-0.033068 0.033068l-0.31496 1e-7v0.31496c-4.2e-6 0.018262-0.014807 0.033065-0.033068 0.033068h-0.16389c-0.018262-3e-6 -0.033066-0.014807-0.033068-0.033068l-2e-7 -0.31496h-0.31496c-0.018261-2.3e-6 -0.033066-0.014807-0.033068-0.033068v-0.16389c2.4e-6 -0.018262 0.014806-0.033066 0.033068-0.033068l0.31496 1e-8v-0.31496c2.4e-6 -0.018262 0.014806-0.033065 0.033068-0.033068h0.16389c0.018261 2.34e-6 0.033066 0.014807 0.033068 0.033068v0.31496z"/></g></symbol><symbol id="icon-antarctic-globe" viewBox="0 0 21.623 21.624"><g transform="translate(-23.476 -71.782)"><ellipse cx="34.287" cy="82.594" fill="transparent" rx="10.812" ry="10.812"/><path fill="currentColor" stroke-width=".045202" d="m26.754 74.835c-4.2818 4.1581-4.3823 11.01-0.22424 15.292 4.1581 4.2818 11.01 4.3823 15.292 0.22423 4.2741-4.1505 4.3805-10.984 0.24539-15.268a0.32442 0.32442 0 0 0-0.02109-0.02432 0.32442 0.32442 0 0 0-0.02072-0.01993c-4.1603-4.261-10.996-4.3555-15.271-0.20418zm0.45202 0.46548c2.6677-2.5906 6.3865-3.4233 9.7314-2.5226 0.0089 0.01087 0.0184 0.02021 0.02702 0.03142 0.51624 0.69199 1.5138 0.83384 2.3799 0.96515 0.80338 0.46154 1.558 1.0386 2.2359 1.7368 2.9462 3.0339 3.6202 7.4272 2.0547 11.084-0.08532-0.0015-0.17948-0.02094-0.28377-0.06241-0.5437 0.86421-0.76921 1.9767-1.5698 2.688-0.49099 0.42108-1.5035 0.58569-1.766 0.99188-0.35499 0.1262-1.059 0.99281-0.93955 1.3475-3.8964 2.0846-8.8468 1.4447-12.081-1.8853-2.6634-2.7427-3.4685-6.5964-2.4423-10.013 0.28842 0.28303 0.57076 0.70816 1.0131 0.84799 0.58199 0.56954 1.7473 0.17223 1.8844-0.65048 0.19188-1.0608-0.37385 0.40338-0.84171-0.15064 0.02765-0.65236-0.61249-0.15036-0.47848-0.61703-0.4279-0.51579 0.01163-1.2081-0.15036-1.6841 0.16035-0.38496 0.27628-0.8142 0.42522-1.2308 0.24767-0.30341 0.51306-0.59714 0.80092-0.87667zm1.674 4.0807c-0.05412 0.03613-0.1302 0.38824-0.08574 0.57082 0.46741 0.1537 0.23404 1.1063 0.91356 0.9547-0.3669 0.22892 0.06157 1.0663 0.46934 0.7307-0.04615 0.13746 0.2783 0.5794 0.05148 0.82794-0.46294 0.49548-0.0077 1.8054 0.49931 1.0302 0.12549 0.3976 0.08639 1.4184 0.57172 1.5923 0.685 0.38915 1.6116 0.63263 2.3455 0.27128 0.41133 0.53074 1.7439-0.14135 1.5607 0.5612 0.1225 0.34596-0.58478 1.2473 0.4442 1.1008 0.86924 0.18763 1.7018-0.08299 2.4694-0.47372-0.07613-0.0366 0.27822-0.11057 0.19587-0.15786 0.42129-0.53685 0.57685-1.2215 1.15-1.7244-0.12796-0.69329 0.57699-0.83106 0.46941-1.4945-0.39031-0.39677 0.06147-1.439-0.79537-1.7619-0.19899-0.54979-0.10691-1.563-0.48521-2.2362-0.40998-0.46201-1.2955-0.20265-1.6435-0.73926-0.70971 0.02745-1.2747-0.55919-1.9742-0.51348-0.82789-0.22297-1.5813 0.03721-2.0845 0.68758-0.72223 0.51887 0.0466 1.8701-1.1692 2.0181-0.6546 0.39629-1.0416-0.02429-1.6798-0.26361-0.41935-0.34222-1.0315-0.2625-0.74204-0.85629-0.15289-0.77692-0.3525 0.42652-0.43782 0.25677 0.01429-0.31048-0.01062-0.4026-0.0431-0.38092zm5.9736 12.641c-0.23286 0.25108 0.40326 0.28224 0.80929 0.4047 0.55284-0.0675-0.39834-0.14922-0.09348-0.38852-0.46813-0.19726 1.3434-0.54799 0.92876-1.0191-0.44263-0.24914-0.83034 0.66606-1.3308 0.79005-0.15977 0.08518-0.26008 0.15491-0.31379 0.21288zm4.4793-1.9038c-0.11935 0.09197-0.15282 0.23716 0.06747 0.43026 0.15105 0.03969 0.15617-0.10381 0.17535-0.20264 0.69764-0.37398 0.01979-0.42991-0.24284-0.22758z"/></g></symbol><symbol id="icon-arctic-globe" viewBox="0 0 21.623 21.624"><g transform="translate(-47.694 -72.587)"><ellipse cx="58.506" cy="83.399" fill="transparent" rx="10.812" ry="10.812"/><path fill="currentColor" stroke-width=".045192" d="m58.506 72.587c-5.9672 0-10.812 4.8444-10.812 10.812 0 5.9673 4.8444 10.812 10.812 10.812 5.9564 0 10.792-4.8273 10.81-10.78 0.0011-0.01066 0.0016-0.02137 0.0017-0.03211 1.7e-5 -0.0095-3.93e-4 -0.01916-0.0012-0.02872-0.01577-5.954-4.8529-10.783-10.81-10.783zm0 0.6487c0.18714 0 0.37284 0.0056 0.55747 0.01564 0.0968 0.08917-0.07923 0.31484 0.08784 0.6542 1.135-0.02554-0.10228 0.59493-0.61871 0.41558-0.56358-0.38444-0.96937 0.51563-1.2615 0.22172 0.72392-0.27565-0.0306-0.82634 0.43584-1.0567-0.38959 0.08536-1.1303 0.54274-1.0423 1.022-0.40623 0.3997-1.5167 0.75373-1.0706 1.324-0.7042 0.03361-0.47485 0.60794-1.0871 0.69009-0.54198 0.50358-0.1231-0.14302-0.4067-0.38939-0.20673-0.12982-1.471 1.0812-0.89365-0.02955-0.07493-0.51375 1.6795-1.6712 0.91519-1.275-0.60006 0.542-1.3727 1.2094-1.3405 2.0314-0.48289-0.22667 0.06641 0.5141-0.12459 0.79652-0.2039 0.92666-1.2242 1.2964-1.8836 1.8274 0.77843-0.12647-0.37243 0.28529-0.51862 0.72261-0.75204 0.5164-1.6969 0.95712-1.7531 2.0728-0.04678 0.10914-0.08828 0.2195-0.12501 0.33026 0.4027-5.2468 4.7788-9.3737 10.13-9.3737zm1.0279 0.05153c0.11401 0.01142 0.22669 0.02709 0.33955 0.04224-0.14538 0.03303-0.27516 0.09702-0.37123 0.21623-0.03386-0.11001-0.01707-0.19348 0.03168-0.25847zm-1.9841 2.7181c0.47187 0.0059 1.0258 0.10542 1.3417 0.60647-1.0044-0.12351-0.29678 0.38071 0.2893 0.32098-0.47937-0.51357 0.48466-1.027 0.53593-0.55072-0.02366 0.48286 1.2705 0.41408 0.58113 0.9549 0.26784 0.43391-0.7044 1.7331 0.32224 1.1897-0.16656-0.85555 0.29197-0.4305 0.90421-0.13388 0.43044 0.12016 0.8049 0.27664 0.67573 0.53003 0.33656-0.12737-0.02323 0.61738 0.82143 0.48231 0.51372 0.64552-1.0168 0.88783-1.2818-0.05322-0.68729-0.13247 0.64128 1.2956 1.1428 1.0503 0.40567-0.77109 0.46783 0.07835 0.59337 0.50764-0.65288 0.31044 0.42458 0.43962 0.1022 0.58493-0.9969 0.18398-1.7417 0.94052-1.5056 2.009 0.51839 0.08547 0.10024 1.4026 0.42233 2.0099 0.42304 0.96414 1.0079-0.87649 0.75217 0.26227 0.437 0.4875 0.06682 0.84827-0.0021 1.4047-0.17344 0.10384-1.0388-0.4454-1.1492-0.77202-0.15453-0.46834-0.29751-0.13924-0.47723 0.0773-0.42354 0.29638 0.4699 0.69648-0.19723 1.0267-0.18795 0.75019 0.74148 0.72955 0.62209-0.02619 0.17479-0.15084 0.17438 1.232 0.6601 0.34969 1.2192-0.83003-0.95235 0.73931 0.14275 0.58028 0.76559 0.25511 0.1043 0.8569-0.46287 0.88395-0.30506 0.17794-0.19717 1.5602 0.4616 1.0719-0.0247 0.38901-0.44488 1.3902-0.88647 1.4245-0.36647-0.13058 0.09002 0.24997-0.26184 0.4084-0.23168 0.21602-0.41562 0.68813-0.33406 0.9473-0.90641 0.2647-1.8642 0.40924-2.8566 0.40924-2.0512 0-3.9581-0.60835-5.5545-1.6517-0.22706-0.28748-0.30223-0.30007-0.26563-0.17992-0.2737-0.19148-0.53759-0.39595-0.7906-0.61281 0.02581-0.03783-0.1829-0.30643-0.25931-0.37419-0.19512-0.31381-1.2279-1.19-0.84466-1.1872 0.55603 1.2078 0.24951-0.22671-0.25635-0.54312 0.07417 0.5458-0.14265 0.28363-0.36531-0.12121-0.81768-0.75888-0.17872-0.05745 0.11698 0.48484-0.65151-0.89469-1.1615-1.899-1.4946-2.9817 0.02376-0.051 0.0521-0.10134 0.09122-0.14993 0.51463 0.88859 1.2451 1.3947 1.2573 2.5028 0.41993 0.68137 0.25071-0.33872 0.49666-0.40037 0.63744 0.55159 0.80862-0.02666 1.3971-0.04603 0.53792 0.50982 0.35044-0.2421 0.81848-0.02955 0.21761 0.31305 1.2404 0.84968 1.3312 0.23102-0.25736 0.08176-0.74756-0.32137-0.39023-0.70065-0.50279-0.62511 0.10195-0.02647 0.30239 0.2534-0.14998-0.39193 0.47945-0.0046 0.68375-0.0929-1.0924 0.24596 0.376 1.5303 0.53889 0.81891-0.3013-0.48635-0.12988-0.75543-0.12923-1.3447-0.68309-0.32514 0.1668-2.2719-0.76146-1.6104-0.05159-0.39292 0.06311-1.2132-0.33702-1.3781 0.29609-0.52762 0.4132 0.67471 0.70825 0.95912 0.36954 0.25679 0.44593-0.70562 0.92406-0.68672 0.0082-0.50696-0.11091-0.93666 0.03168-1.4989 0.08932-0.64361-0.43942-1.9436-1.1318-0.90802-0.36288 1.178-0.22452-0.76856 0.52876-0.46246 0.18516-0.68026 0.36386 0.89332 0.99796 0.155 0.53839-0.37497 0.1474 0.07709 0.3404 0.43036 0.67915 0.41096 0.13682 1.3031 0.05912 1.8422-0.21705 0.79625-0.39164 2.0813 0.49455 2.5188 0.4131-0.65229 0.71252-1.2287 1.3624-1.6344 0.91355-0.26588 0.94618-0.99385 0.95446-1.7438 0.12104-0.44506-0.17254-0.85654-0.20525-1.2995 0.3749-0.69817-0.79278-1.1949-1.4034-0.83326-0.14266-0.51011-1.5231-1.0338-1.601-0.416 0.07721-0.45523-0.318-0.48876-0.72176-0.22046 0.22722-0.20656-0.2818-0.14364-0.07306-0.33449 0.32318 0.28917 0.83399-0.05761 0.19005-0.34167-0.39886-0.52044-0.94715 0.46913-0.53509 0.79821 0.5643 0.5902-0.27638 0.25852-0.51271 0.60056 0.23151 0.42208-0.765 0.4526-0.31759 0.24791 0.09039-0.35127 1.0265-0.64678 0.40839-1.0119 0.45354-0.44502 0.38467-1.2681-0.40375-0.82693 0.22626 0.22696-0.56322 0.87348-0.38854 0.42825 0.50015-0.58918-0.1305-1.309 0.54227-1.8034 0.4292-0.31117 1.3082-1.5949 0.48568-1.5622 0.04518-0.80422 1.7187-0.21632 2.292-0.82524 0.12711-0.0073 0.2756-0.01594 0.43289-0.01395zm3.0099 3.4982c-0.18513-0.0029-0.02373 0.5331 0.09544 0.77414 0.3444 0.13981 0.28407-0.37793 0.21961-0.56044-0.15312-0.15156-0.25335-0.21272-0.31506-0.2137zm-0.09544 1.4452c-0.40939 0.03237-0.38194 1.1763 0.38221 0.98108l0.0849 0.0038c-0.26742-0.3994 0.15899-0.23537 0.09164-0.57015-0.68729-0.04166 0.15016-0.44188-0.35771-0.35349-0.07547-0.0479-0.14254-0.06586-0.20103-0.06124zm6.6728 0.84382c-0.07023 0.87378 1.3298-0.17526 0.92912 0.90633-0.10621 0.31451-0.1775-0.14409-0.26142-0.20568-0.49017 0.51481-0.72664-0.28772-0.6677-0.70065zm-12.402 1.3523c0.04275 0.0088-0.05788 0.24839 0.10516 0.19216-0.49754 0.16235 0.5067 0.55976-0.20187 0.68334-0.63528-0.37577-0.82869 0.70969-1.3143 0.90042 0.16644 0.72212-0.54038 0.35562-0.67784 0.66095v-8.18e-4l-0.02408 0.06377c-0.25781-0.24968 0.03056-0.83695-0.23102-1.2746-0.42775-0.97753 0.54794-1.3959 1.3198-1.0237-0.58818 0.27445 0.36884 0.4714-0.25678 0.60478 0.63838 0.48526 0.46296-0.70677 1.0955-0.62548 0.11679-0.141 0.16597-0.18472 0.1854-0.18076zm12.578 0.70783c0.32675 0.23189-0.50983 1.1634-0.48357 1.6898-0.24319 0.40806-0.33709-0.5105-0.34927-0.63646 0.53392-0.11257 0.33589-0.791 0.83283-1.0533zm-3.3077 0.40249c0.39236 0.05492 0.68676 1.1703 0.07052 1.4414-0.08649-0.04376-0.23936 0.25574-0.11065-0.02956 0.39945-0.20152-0.28276-0.91183-0.03928-1.4085 0.02679-0.0064 0.05325-0.0071 0.0794-0.0033zm-3.9669 0.87719c-0.08274 0.0073-0.18748 0.04036-0.3159 0.1077-0.70154-0.08727-0.48328 0.46311-0.30281 0.69432 0.71618 0.3668 1.1978-0.85245 0.61871-0.80201zm7.6057 0.16006c0.65856 0.57628-0.44936 1.7964-0.9249 2.4069 0.02463 0.49222-1.0744 1.5265-1.2632 0.85649-0.68851 0.18838-1.4003 1.285-2.1691 1.7278-0.31137 0.11413 0.38653-0.33131 0.36616-0.38094 0.25452-0.71622 0.39266-1.4088 0.94433-1.9909 0.25867-0.41928-0.09535 1.1792 0.48441 0.49202-0.80038-0.58818 1.3726-1.0485 0.37672-0.21201 0.47855 0.5637 0.51138-0.63001 0.56381-1.0178-0.33112 0.21515-1.6253 0.18008-0.53847 0.04012 0.47355-0.47018 1.3526 0.49616 1.6636-0.51356-0.01524-0.80806 0.64661-0.82084 0.49666-1.4081z"/></g></symbol><symbol id="icon-buffer-rings-off" viewBox="0 0 18 18"><path d="m9 7.9c-0.98006 0-1.4707 1.1849-0.77778 1.8778 0.26809 0.26809 0.60981 0.35901 0.92806 0.31297 0.50433-0.072957 0.94972-0.48987 0.94972-1.0908 0-0.60751-0.49249-1.1-1.1-1.1z"/><path stroke-width="1.2408" d="m13.888 8.0556c-0.6604-3.6086-5.265-5.4806-8.2667-2.691-3.0944 2.8757-1.3728 7.8126 2.4135 8.5159-0.039507-0.45438 0.00425-0.91499 0.061066-1.2516-3.1059-0.70569-4.0323-5.1836-0.88704-6.8979 0.98456-0.55028 2.1675-0.61706 3.2078-0.1811 1.1147 0.46187 1.9084 1.4168 2.1915 2.5347 0.5123-0.080388 0.56955-0.080255 1.28-0.028934z"/><path stroke-width="1.2408" d="m2.8194 3.773c-4.6851 5.5413-0.63918 13.993 6.5798 13.256-0.39206-0.46578-0.70012-0.90848-0.82663-1.2214-6.0117 8.97e-4 -8.8392-7.5494-4.2361-11.827 4.3747-4.065 11.184-0.92898 11.469 4.5596 0.56112 0.31114 0.6975 0.39547 1.2359 0.87776 0.50243-7.5189-9.1195-11.688-14.222-5.6448z"/><path d="m13.43 8.9784c-3.9648 0-5.9497 4.7933-3.1465 7.5965 2.8032 2.8032 7.5965 0.81834 7.5965-3.1465 0-2.4577-1.9923-4.45-4.45-4.45zm2.913 6.1335c0.0976 0.09762 0.0976 0.25588 0 0.3535l-0.876 0.876c-0.09762 0.09759-0.25588 0.09759-0.3535 0l-1.6835-1.6835-1.6835 1.6835c-0.09763 0.09759-0.25588 0.09759-0.3535 0l-0.876-0.876c-0.0976-0.09763-0.0976-0.25588 0-0.3535l1.6835-1.6835-1.6835-1.6835c-0.0976-0.09762-0.0976-0.25588 0-0.3535l0.876-0.876c0.09763-0.0976 0.25588-0.0976 0.3535 0l1.6835 1.6835 1.6835-1.6835c0.09763-0.0976 0.25588-0.0976 0.3535 0l0.876 0.876c0.0976 0.09762 0.0976 0.25588 0 0.3535l-1.6835 1.6835z"/></symbol><symbol id="icon-buffer-rings" viewBox="0 0 18 18"><path d="m9 7.9c-0.98006 0-1.4707 1.1849-0.77778 1.8778 0.26809 0.26809 0.60981 0.35901 0.92806 0.31297 0.50433-0.072957 0.94972-0.48987 0.94972-1.0908 0-0.60751-0.49249-1.1-1.1-1.1z"/><ellipse cx="8.9374" cy="9.0201" fill="none" stroke="currentcolor" stroke-linejoin="round" stroke-width="1.25" rx="7.5083" ry="7.521"/><ellipse cx="8.9999" cy="9.0096" fill="none" stroke="currentcolor" stroke-linejoin="round" stroke-width="1.2391" rx="4.3567" ry="4.3695"/></symbol><symbol id="icon-calendar" viewBox="0 0 22 22"><rect width="2" height="2" x="8.5" y="8" rx="0.5" ry="0.5"/><rect width="2" height="2" x="11.5" y="8" rx="0.5" ry="0.5"/><rect width="2" height="2" x="14.5" y="8" rx="0.5" ry="0.5"/><rect width="2" height="2" x="5.5" y="11" rx="0.5" ry="0.5"/><rect width="2" height="2" x="8.5" y="11" rx="0.5" ry="0.5"/><rect width="2" height="2" x="11.5" y="11" rx="0.5" ry="0.5"/><rect width="2" height="2" x="14.5" y="11" rx="0.5" ry="0.5"/><rect width="2" height="2" x="5.5" y="14" rx="0.5" ry="0.5"/><rect width="2" height="2" x="8.5" y="14" rx="0.5" ry="0.5"/><rect width="2" height="2" x="11.5" y="14" rx="0.5" ry="0.5"/><rect width="2" height="2" x="14.5" y="14" rx="0.5" ry="0.5"/><path d="M19.5,3.5h-3V2a.5.5,0,0,0-.5-.5H15a.5.5,0,0,0-.5.5V3.5h-7V2A.5.5,0,0,0,7,1.5H6a.5.5,0,0,0-.5.5V3.5h-3A.5.5,0,0,0,2,4V19a.5.5,0,0,0,.5.5h17A.5.5,0,0,0,20,19V4A.5.5,0,0,0,19.5,3.5ZM18.5,18H3.5V5h2V6a.5.5,0,0,0,.5.5H7A.5.5,0,0,0,7.5,6V5h7V6a.5.5,0,0,0,.5.5h1a.5.5,0,0,0,.5-.5V5h2Z"/></symbol><symbol id="icon-check-circle" viewBox="0 0 18 18"><path d="M9,1a8,8,0,1,0,8,8A8,8,0,0,0,9,1Zm5.333,4.54L8.009,13.6705a.603.603,0,0,1-.4375.2305H7.535a.6.6,0,0,1-.4245-.1755L3.218,9.829a.6.6,0,0,1-.00147-.84853L3.218,8.979l.663-.6625A.6.6,0,0,1,4.72953,8.315L4.731,8.3165,7.4,10.991l5.257-6.7545a.6.6,0,0,1,.8419-.10586L13.5,4.1315l.7275.5685A.6.6,0,0,1,14.333,5.54Z" class="currentColor"/></symbol><symbol id="icon-check" viewBox="0 0 18 18"><path d="M15.656,3.8625l-.7275-.5665a.5.5,0,0,0-.7.0875L7.411,12.1415,4.0875,8.8355a.5.5,0,0,0-.707,0L2.718,9.5a.5.5,0,0,0,0,.707l4.463,4.45a.5.5,0,0,0,.75-.0465L15.7435,4.564A.5.5,0,0,0,15.656,3.8625Z" class="currentColor"/></symbol><symbol id="icon-chevron-down" viewBox="0 0 16 16"><path d="M1.646 4.646a.5.5 0 0 1 .708 0L8 10.293l5.646-5.647a.5.5 0 0 1 .708.708l-6 6a.5.5 0 0 1-.708 0l-6-6a.5.5 0 0 1 0-.708z" fillRule="evenodd"/></symbol><symbol id="icon-chevron-left" viewBox="0 0 16 16"><path d="M11.354 1.646a.5.5 0 0 1 0 .708L5.707 8l5.647 5.646a.5.5 0 0 1-.708.708l-6-6a.5.5 0 0 1 0-.708l6-6a.5.5 0 0 1 .708 0z" fillRule="evenodd"/></symbol><symbol id="icon-chevron-right" viewBox="0 0 16 16"><path d="M4.646 1.646a.5.5 0 0 1 .708 0l6 6a.5.5 0 0 1 0 .708l-6 6a.5.5 0 0 1-.708-.708L10.293 8 4.646 2.354a.5.5 0 0 1 0-.708z"/></symbol><symbol id="icon-chevron-up" viewBox="0 0 16 16"><path d="M7.646 4.646a.5.5 0 0 1 .708 0l6 6a.5.5 0 0 1-.708.708L8 5.707l-5.646 5.647a.5.5 0 0 1-.708-.708l6-6z" fillRule="evenodd"/></symbol><symbol id="icon-circle" viewBox="0 0 16 16"><circle cx="8" cy="8" r="6"/></symbol><symbol id="icon-clock" viewBox="0 0 19 18"><path d="M10.5 8.04215V3.49915C10.5 3.36654 10.4473 3.23936 10.3536 3.14559C10.2598 3.05182 10.1326 2.99915 10 2.99915H9C8.86739 2.99915 8.74021 3.05182 8.64645 3.14559C8.55268 3.23936 8.5 3.36654 8.5 3.49915V8.79215C8.50003 8.92474 8.55272 9.0519 8.6465 9.14565L11.45 11.9491C11.4964 11.9956 11.5515 12.0325 11.6122 12.0576C11.6728 12.0828 11.7378 12.0958 11.8035 12.0958C11.8691 12.0958 11.9342 12.0829 11.9948 12.0578C12.0555 12.0327 12.1107 11.9959 12.1571 11.9495L12.825 11.2811C12.9187 11.1874 12.9714 11.0602 12.9714 10.9276C12.9714 10.7951 12.9187 10.6679 12.825 10.5741L10.6465 8.39515C10.5528 8.30152 10.5002 8.17457 10.5 8.04215Z"/><path d="M9.5 0.999146C13.9183 0.999146 17.5 4.58085 17.5 8.99915C17.5 13.4174 13.9183 16.9991 9.5 16.9991C5.08171 16.9991 1.50002 13.4174 1.5 8.99915C1.5 4.58085 5.0817 0.999146 9.5 0.999146ZM9.5 2.40833C5.85977 2.40833 2.90918 5.35892 2.90918 8.99915C2.9092 12.6393 5.85978 15.5899 9.5 15.5899C13.1402 15.5899 16.0908 12.6393 16.0908 8.99915C16.0908 5.35892 13.1402 2.40833 9.5 2.40833Z"/></symbol><symbol id="icon-cloud-error" viewBox="0 0 19 18"><path d="M13.9844 7.90625C13.2674 7.90625 12.5666 8.11885 11.9704 8.51717C11.3743 8.91549 10.9097 9.48164 10.6353 10.144C10.3609 10.8064 10.2892 11.5353 10.429 12.2385C10.5689 12.9416 10.9141 13.5875 11.4211 14.0945C11.9281 14.6015 12.574 14.9467 13.2772 15.0866C13.9804 15.2265 14.7092 15.1547 15.3716 14.8803C16.034 14.6059 16.6001 14.1413 16.9985 13.5452C17.3968 12.9491 17.6094 12.2482 17.6094 11.5312C17.6094 11.0552 17.5156 10.5838 17.3334 10.144C17.1513 9.70422 16.8843 9.3046 16.5476 8.96799C16.211 8.63138 15.8114 8.36436 15.3716 8.18219C14.9318 8.00001 14.4604 7.90625 13.9844 7.90625ZM13.4465 9.13758C13.4465 9.11087 13.5216 9.06908 13.5761 9.04825C13.7098 9.00837 13.8496 8.99347 13.9887 9.0043C14.135 8.99672 14.2817 9.01154 14.4235 9.04825C14.4798 9.06909 14.5616 9.11709 14.5616 9.13758V9.83078C14.545 10.63 14.4839 11.4276 14.3785 12.22C14.3785 12.2405 14.3646 12.3438 14.2969 12.3438H13.7102C13.6653 12.3438 13.6371 12.2468 13.6263 12.22C13.604 12.0296 13.4465 10.5848 13.4465 9.83078L13.4465 9.13758ZM14.0312 14.1875C13.9088 14.1874 13.7892 14.1511 13.6874 14.083C13.5856 14.015 13.5063 13.9183 13.4595 13.8051C13.4127 13.692 13.4005 13.5676 13.4244 13.4475C13.4483 13.3274 13.5073 13.2171 13.5938 13.1306C13.6804 13.044 13.7907 12.9851 13.9108 12.9612C14.0309 12.9373 14.1553 12.9496 14.2684 12.9964C14.3815 13.0432 14.4782 13.1226 14.5463 13.2243C14.6143 13.3261 14.6506 13.4458 14.6507 13.5682C14.6507 13.6495 14.6347 13.7301 14.6036 13.8053C14.5725 13.8804 14.5268 13.9487 14.4693 14.0062C14.4118 14.0637 14.3435 14.1093 14.2683 14.1404C14.1931 14.1716 14.1126 14.1875 14.0312 14.1875Z"/><path d="M14.3441 7.01298C14.2305 7.00437 14.1158 7.00003 14 6.99998C13.1852 7.0001 12.3856 7.22144 11.6867 7.64038C10.9878 8.05932 10.4158 8.66015 10.0316 9.37876C9.64742 10.0974 9.46555 10.9068 9.50539 11.7207C9.54523 12.5345 9.80527 13.3223 10.2578 14H2.35911C1.83984 13.974 1.35215 13.7428 1.00334 13.3573C0.65452 12.9717 0.473143 12.4634 0.499107 11.9442L0.500007 11.9272C0.536762 11.3884 0.761858 10.8797 1.13589 10.4901C1.50992 10.1006 2.00905 9.855 2.54591 9.79638C2.48033 9.53899 2.45779 9.27253 2.47921 9.00778C2.50271 8.18147 2.85246 7.39809 3.45198 6.82895C4.05149 6.25981 4.85199 5.95122 5.67841 5.97068C6.03305 5.97091 6.38599 6.01987 6.72731 6.11618C6.93903 5.25793 7.4251 4.49224 8.11169 3.93544C8.79827 3.37863 9.64783 3.06116 10.5313 3.03123C11.4977 2.98488 12.443 3.32433 13.1591 3.97491C13.8753 4.62549 14.3036 5.5339 14.35 6.50032C14.3551 6.60561 14.3555 6.71097 14.3515 6.81638C14.3515 6.88237 14.3489 6.94789 14.3441 7.01298Z"/></symbol><symbol id="icon-compass" viewBox="0 0 18 18"><path d="M.75,9.75H1.5a.72923.72923,0,0,0,.0745-.015,7.412,7.412,0,0,0,.843,2.765L3.35,11.1185A6.0245,6.0245,0,0,1,11.091,3.342l1.3875-.9365a7.409,7.409,0,0,0-2.7435-.831A.72923.72923,0,0,0,9.75,1.5V.75a.75.75,0,0,0-1.5,0V1.5a.72923.72923,0,0,0,.015.0745A7.4635,7.4635,0,0,0,1.5745,8.265.72923.72923,0,0,0,1.5,8.25H.75a.75.75,0,0,0,0,1.5Z"/><path d="M17.25,8.25H16.5a.72923.72923,0,0,0-.0745.015,7.414,7.414,0,0,0-.831-2.744L14.658,6.9085A6.0245,6.0245,0,0,1,6.882,14.65L5.5,15.5825a7.41193,7.41193,0,0,0,2.767.843A.7279.7279,0,0,0,8.25,16.5v.75a.75.75,0,0,0,1.5,0V16.5a.72923.72923,0,0,0-.015-.0745A7.4635,7.4635,0,0,0,16.4255,9.735.72923.72923,0,0,0,16.5,9.75h.75a.75.75,0,0,0,0-1.5Z" class="fill"/><path d="M7.3535,7.8725l-5.767,8.541,8.541-5.767a2.25778,2.25778,0,0,0,.6055-.6055L16.5,1.5,7.959,7.267A2.25778,2.25778,0,0,0,7.3535,7.8725ZM9.004,10.359a1.363,1.363,0,1,1,1.3625-1.363A1.36343,1.36343,0,0,1,9.004,10.359Z" class="fill"/></symbol><symbol id="icon-cursor-select" viewBox="-1 -1 19 19"><path d="M4.25,1.027a.25.25,0,0,0-.25.25v16.39a.25.25,0,0,0,.25.25.245.245,0,0,0,.175-.0735L9.262,13h6.5a.25.25,0,0,0,.177-.427L4.427,1.1A.245.245,0,0,0,4.25,1.027Z"/></symbol><symbol id="icon-data-settings" viewBox="0 0 18 18"><ellipse cx="9" cy="3.5" rx="8" ry="2.5"/><path d="M7.5,13.5a5.986,5.986,0,0,1,.1735-1.41C5.144,11.928,1.75,11.3265,1,10.135V14.5c0,1.3415,3.3845,2.433,7.629,2.494A5.96609,5.96609,0,0,1,7.5,13.5Z"/><path d="M13.5,7.5a5.962,5.962,0,0,1,3.4805,1.119A.75086.75086,0,0,0,17,8.5V5.135c-1.2235,1.55-5.532,2-8,2s-7.106-.584-8-2V8.5c0,1.281,3.0855,2.3355,7.06,2.4815A5.99452,5.99452,0,0,1,13.5,7.5Z"/><path d="M17.6,12.893H16.534a3.06239,3.06239,0,0,0-.45-1.0895l.7565-.7565a.3035.3035,0,0,0,0-.429l-.46-.46a.3035.3035,0,0,0-.429,0l-.7555.757a3.07344,3.07344,0,0,0-1.089-.45V9.4035A.3035.3035,0,0,0,13.8035,9.1h-.607a.3035.3035,0,0,0-.3035.3035V10.466a3.07344,3.07344,0,0,0-1.089.45l-.754-.7565a.3035.3035,0,0,0-.429,0l-.46.46a.3035.3035,0,0,0,0,.429l.754.7565a3.06239,3.06239,0,0,0-.45,1.0895H9.4035A.3035.3035,0,0,0,9.1,13.198v.607a.3035.3035,0,0,0,.3035.3035H10.466a3.06239,3.06239,0,0,0,.45,1.0895l-.7565.7565a.3035.3035,0,0,0,0,.429l.46.46a.3035.3035,0,0,0,.429,0l.7565-.7565a3.07344,3.07344,0,0,0,1.089.45V17.6a.3035.3035,0,0,0,.3035.3035h.607A.3035.3035,0,0,0,14.108,17.6V16.534a3.07351,3.07351,0,0,0,1.089-.45l.7565.7565a.3035.3035,0,0,0,.429,0l.46-.46a.3035.3035,0,0,0,0-.429l-.7575-.7555a3.06239,3.06239,0,0,0,.45-1.0895H17.6a.3035.3035,0,0,0,.3035-.3035v-.6065A.3035.3035,0,0,0,17.6,12.893Zm-4.1,2.189A1.582,1.582,0,1,1,15.082,13.5h0A1.58251,1.58251,0,0,1,13.5,15.082Z"/></symbol><symbol id="icon-double-left-arrow" viewBox="0 0 12 12"><path fill="none" stroke="currentColor" d="M5.33329 10.6667L0.666627 6.00008L5.33329 1.33341M10.6666 10.6667L5.99996 6.00008L10.6666 1.33341" strokeLinecap="round" strokeLinejoin="round"/></symbol><symbol id="icon-double-right-arrow" viewBox="0 0 12 12"><path fill="none" stroke="currentColor" d="M6.66668 0.833252L11.3333 5.49992L6.66668 10.1666M1.33334 0.833252L6.00001 5.49992L1.33334 10.1666" strokeLinecap="round" strokeLinejoin="round"/></symbol><symbol id="icon-download" viewBox="0 0 18 18"><path d="M16.5,12h-1a.5.5,0,0,0-.5.5V15H3V12.5a.5.5,0,0,0-.5-.5h-1a.5.5,0,0,0-.5.5v4a.5.5,0,0,0,.5.5h15a.5.5,0,0,0,.5-.5v-4A.5.5,0,0,0,16.5,12Z"/><path d="M8.8245,13.428a.25.25,0,0,0,.35,0L12.9,9.6655a.391.391,0,0,0,.1-.263.4.4,0,0,0-.4-.4H10V1.5A.5.5,0,0,0,9.5,1h-1a.5.5,0,0,0-.5.5V9H5.4a.4.4,0,0,0-.4.4.391.391,0,0,0,.1.263Z"/></symbol><symbol id="icon-edit" viewBox="0 0 18 18"><path d="M16.7835,4.1,13.9,1.216a.60751.60751,0,0,0-.433-.1765H13.45a.6855.6855,0,0,0-.4635.203L2.542,11.686a.49494.49494,0,0,0-.1255.211L1.0275,16.55c-.057.1885.2295.4255.3915.4255a.12544.12544,0,0,0,.031-.0035c.138-.0315,3.933-1.172,4.6555-1.389a.486.486,0,0,0,.207-.1245L16.7565,5.014a.686.686,0,0,0,.2-.4415A.61049.61049,0,0,0,16.7835,4.1ZM5.7,14.658c-1.0805.3245-2.431.7325-3.3645,1.011L3.34,12.304Z" class="fill"/></symbol><symbol id="icon-filter" viewBox="0 0 22 22"><rect id="Canvas" width="22" height="22" fill="currentColor" opacity="0"/><path d="M18.944,2.5H3.056a.5.5,0,0,0-.387.817L9.52,11.685v8.041a.5.5,0,0,0,.8.4l1.934-1.294a.5.5,0,0,0,.222-.415V11.685l6.851-8.368A.5.5,0,0,0,18.944,2.5Z"/></symbol><symbol id="icon-focus-item" viewBox="0 0 18 18"><path d="m14 15.375v-1.625l2.25 2.25 0.75-0.75-2.25-2.25h1.625c0.13807 0 0.25-0.11193 0.25-0.25v-0.5c0-0.13807-0.11193-0.25-0.25-0.25h-3.375v3.375c0 0.13807 0.11193 0.25 0.25 0.25h0.5c0.13807 0 0.25-0.11193 0.25-0.25z"/><circle cx="9" cy="9" r="2.5378"/><path d="m4 15.375v-1.625l-2.25 2.25-0.75-0.75 2.25-2.25h-1.625c-0.13807 0-0.25-0.11193-0.25-0.25v-0.5c0-0.13807 0.11193-0.25 0.25-0.25h3.375v3.375c0 0.13807-0.11193 0.25-0.25 0.25h-0.5c-0.13807 0-0.25-0.11193-0.25-0.25z"/><path d="m14 2.625v1.625l2.25-2.25 0.75 0.75-2.25 2.25h1.625c0.13807 0 0.25 0.11193 0.25 0.25v0.5c0 0.13807-0.11193 0.25-0.25 0.25h-3.375v-3.375c0-0.13807 0.11193-0.25 0.25-0.25h0.5c0.13807 0 0.25 0.11193 0.25 0.25z"/><path d="m4 2.625v1.625l-2.25-2.25-0.75 0.75 2.25 2.25h-1.625c-0.13807 0-0.25 0.11193-0.25 0.25v0.5c0 0.13807 0.11193 0.25 0.25 0.25h3.375v-3.375c0-0.13807-0.11193-0.25-0.25-0.25h-0.5c-0.13807 0-0.25 0.11193-0.25 0.25z"/></symbol><symbol id="icon-follow-off" viewBox="0 0 18 18"><path d="M3.95,14.45l-.379.05a1.45,1.45,0,0,1-1.62561-1.25L1.945,13.247l-.15-1.3625,3.258-.4225.15,1.3625a1.45,1.45,0,0,1-1.25052,1.62518ZM2.8795.669C2.0415-.3075,1.105-.4.443,1.654c-.98,4.35-.22,6.105,1.1615,8.96l3.258-.4225c-.35-2.697.3215-3.9075.181-4.993A8.78449,8.78449,0,0,0,2.8795.669Z"/><path d="M6.8445,13.625l.5095.0855c0-.07-.004-.14-.004-.2105a6.15251,6.15251,0,0,1,4.5335-5.935,18.71909,18.71909,0,0,0-.2965-2.3c-.582-2.08-1.5215-2.024-2.396-1.08A8.782,8.782,0,0,0,6.855,8.629C6.673,9.708,7.2975,10.9435,6.8445,13.625Z"/><path d="M7.5535,15.0735l-.95-.16-.2,1.3295a1.45,1.45,0,0,0,1.18659,1.67242l.00341.00058.377.0635a1.447,1.447,0,0,0,1.073-.2415A6.13907,6.13907,0,0,1,7.5535,15.0735Z"/><path d="M13.5,9.05a4.45,4.45,0,1,0,4.45,4.45A4.45,4.45,0,0,0,13.5,9.05ZM10,13.5a3.46708,3.46708,0,0,1,.7375-2.126l4.8885,4.8885A3.483,3.483,0,0,1,10,13.5Zm6.2625,2.126L11.374,10.7375a3.483,3.483,0,0,1,4.8885,4.8885Z"/></symbol><symbol id="icon-follow" viewBox="0 0 18 18"><path d="M7.044,14.45l-.379.05a1.45,1.45,0,0,1-1.62561-1.25L5.039,13.247l-.15-1.3625,3.258-.4225.15,1.3625a1.45,1.45,0,0,1-1.25052,1.62518ZM5.9725.669C5.135-.3075,4.2-.4,3.5365,1.654c-.98,4.35-.22,6.105,1.161,8.96l3.258-.4225c-.35-2.697.322-3.9075.181-4.993A8.78345,8.78345,0,0,0,5.9725.669Z"/><path d="M10.6865,17.916l.377.0635a1.45,1.45,0,0,0,1.67242-1.18659l.00058-.00341.2-1.3295L9.7,14.9135,9.5,16.243a1.45,1.45,0,0,0,1.18592,1.6729ZM12.284,4.185c.8745-.944,1.8165-1,2.3995,1.0775.813,4.3835-.0135,6.109-1.503,8.909L9.938,13.625c.45-2.6815-.172-3.917.01-4.996A8.78449,8.78449,0,0,1,12.284,4.185Z"/></symbol><symbol id="icon-fuel" viewBox="0 0 19 18"><path d="M2.75 15.75C2.55109 15.75 2.36032 15.671 2.21967 15.5303C2.07902 15.3897 2 15.1989 2 15C2 14.8011 2.07902 14.6103 2.21967 14.4697C2.36032 14.329 2.55109 14.25 2.75 14.25V4.5C2.75 3.90326 2.98705 3.33097 3.40901 2.90901C3.83097 2.48705 4.40326 2.25 5 2.25H9.5C10.0967 2.25 10.669 2.48705 11.091 2.90901C11.5129 3.33097 11.75 3.90326 11.75 4.5V7.5C12.3467 7.5 12.919 7.73705 13.341 8.15901C13.7629 8.58097 14 9.15326 14 9.75V12C14 12.0995 14.0395 12.1948 14.1098 12.2652C14.1802 12.3355 14.2755 12.375 14.375 12.375C14.4745 12.375 14.5698 12.3355 14.6402 12.2652C14.7105 12.1948 14.75 12.0995 14.75 12V7.5C14.3522 7.5 13.9706 7.34196 13.6893 7.06066C13.408 6.77936 13.25 6.39782 13.25 6V5.56125L12.7197 5.03025C12.5906 4.90111 12.513 4.72928 12.5016 4.54701C12.4901 4.36474 12.5456 4.18455 12.6575 4.04025L12.7197 3.96975C12.8604 3.82915 13.0511 3.75016 13.25 3.75016C13.4489 3.75016 13.6396 3.82915 13.7803 3.96975L16.0325 6.22125L16.1038 6.30525L16.1248 6.33525L16.1578 6.39L16.1968 6.4725L16.22 6.54L16.235 6.597L16.244 6.6555L16.25 6.75V12C16.25 12.4973 16.0525 12.9742 15.7008 13.3258C15.3492 13.6775 14.8723 13.875 14.375 13.875C13.8777 13.875 13.4008 13.6775 13.0492 13.3258C12.6975 12.9742 12.5 12.4973 12.5 12V9.75C12.5 9.55109 12.421 9.36032 12.2803 9.21967C12.1397 9.07902 11.9489 9 11.75 9V14.25C11.9489 14.25 12.1397 14.329 12.2803 14.4697C12.421 14.6103 12.5 14.8011 12.5 15C12.5 15.1989 12.421 15.3897 12.2803 15.5303C12.1397 15.671 11.9489 15.75 11.75 15.75H2.75ZM9.5 3.75H5C4.80109 3.75 4.61032 3.82902 4.46967 3.96967C4.32902 4.11032 4.25 4.30109 4.25 4.5V7.5H10.25V4.5C10.25 4.30109 10.171 4.11032 10.0303 3.96967C9.88968 3.82902 9.69891 3.75 9.5 3.75Z"/></symbol><symbol id="icon-fullscreen" viewBox="0 0 18 18"><path d="M16 12.9363V15.6863H13.25C13.1837 15.6863 13.1201 15.7126 13.0732 15.7595C13.0263 15.8064 13 15.87 13 15.9363V16.4363C13 16.5026 13.0263 16.5662 13.0732 16.6131C13.1201 16.6599 13.1837 16.6863 13.25 16.6863H17V12.9363C17 12.87 16.9737 12.8064 16.9268 12.7595C16.8799 12.7126 16.8163 12.6863 16.75 12.6863H16.25C16.1837 12.6863 16.1201 12.7126 16.0732 12.7595C16.0263 12.8064 16 12.87 16 12.9363ZM2 15.6863V12.9363C2 12.87 1.97366 12.8064 1.92678 12.7595C1.87989 12.7126 1.8163 12.6863 1.75 12.6863H1.25C1.1837 12.6863 1.12011 12.7126 1.07322 12.7595C1.02634 12.8064 1 12.87 1 12.9363V16.6863H4.75C4.8163 16.6863 4.87989 16.6599 4.92678 16.6131C4.97366 16.5662 5 16.5026 5 16.4363V15.9363C5 15.87 4.97366 15.8064 4.92678 15.7595C4.87989 15.7126 4.8163 15.6863 4.75 15.6863H2ZM13 2.93628V3.43628C13 3.50258 13.0263 3.56617 13.0732 3.61306C13.1201 3.65994 13.1837 3.68628 13.25 3.68628H16V6.43628C16 6.50258 16.0263 6.56617 16.0732 6.61306C16.1201 6.65994 16.1837 6.68628 16.25 6.68628H16.75C16.8163 6.68628 16.8799 6.65994 16.9268 6.61306C16.9737 6.56617 17 6.50258 17 6.43628V2.68628H13.25C13.1837 2.68628 13.1201 2.71262 13.0732 2.7595C13.0263 2.80639 13 2.86998 13 2.93628ZM2 3.68628H4.75C4.8163 3.68628 4.87989 3.65994 4.92678 3.61306C4.97366 3.56617 5 3.50258 5 3.43628V2.93628C5 2.86998 4.97366 2.80639 4.92678 2.7595C4.87989 2.71262 4.8163 2.68628 4.75 2.68628H1V6.43628C1 6.50258 1.02634 6.56617 1.07322 6.61306C1.12011 6.65994 1.1837 6.68628 1.25 6.68628H1.75C1.8163 6.68628 1.87989 6.65994 1.92678 6.61306C1.97366 6.56617 2 6.50258 2 6.43628V3.68628Z"/><path d="M13.75 5.68628H4.25C4.11193 5.68628 4 5.79821 4 5.93628V13.4363C4 13.5744 4.11193 13.6863 4.25 13.6863H13.75C13.8881 13.6863 14 13.5744 14 13.4363V5.93628C14 5.79821 13.8881 5.68628 13.75 5.68628Z"/></symbol><symbol id="icon-globe" viewBox="0 0 18 18"><path d="M3.573 7.57077C3.05 5.67727 4.4 4.86227 4.267 3.24426C3.25749 3.9886 2.43623 4.9589 1.86893 6.07752C1.30163 7.19614 1.00405 8.43202 1 9.68626C1 14.2423 4.9715 16.9573 7.777 17.5518C7.94889 17.5934 8.12375 17.6216 8.3 17.6363C9.3 15.0863 7.4135 12.2418 6.1685 10.3893C5.131 8.84526 4.189 9.79926 3.573 7.57077Z"/><path d="M16.3905 10.2018C15.585 9.89526 14.8945 10.9393 14.8335 8.11976C14.8404 7.37012 15.1392 6.65269 15.6665 6.11976C15.7798 6.04586 15.9024 5.98718 16.031 5.94526C15.9355 5.77076 15.831 5.60326 15.721 5.43626C15.7025 5.44626 15.686 5.45876 15.6665 5.46726C15.0415 5.75926 14.955 5.84526 14.6665 5.46726C14.5955 5.38197 14.5434 5.28266 14.5135 5.17583C14.4835 5.06899 14.4765 4.95704 14.4929 4.8473C14.5092 4.73756 14.5485 4.63251 14.6082 4.53901C14.668 4.44552 14.7468 4.3657 14.8395 4.30476C14.0999 3.49255 13.2007 2.84151 12.1983 2.39227C11.1958 1.94304 10.1115 1.70526 9.013 1.69376C10.027 1.70776 11.2365 2.45876 10.6195 3.65826C10.7125 3.46776 8.606 3.01326 8.3195 3.01326C7.9335 3.01326 9.107 1.56876 8.9995 1.69376C7.85904 1.69387 6.73162 1.9364 5.692 2.40526C6.2385 2.75876 6.8475 2.63526 7.4635 2.78726C7.66002 2.82532 7.847 2.90215 8.0135 3.01326C7.84341 2.90904 7.65773 2.83274 7.4635 2.78726C6.555 2.68226 7.9035 5.17626 7.8525 4.84426C8.1025 3.69826 9.6585 3.25626 10.1355 4.77076C10.1248 5.1842 9.97749 5.58245 9.7165 5.90326C9.0115 6.83027 8.8665 8.48027 8.5165 8.05827C5.2215 6.70827 5.584 8.49377 6.6665 9.68727C8.3985 11.5973 7.5195 9.88276 9.7875 10.8833C11.6115 11.6873 13.807 11.8778 13.2715 12.4833C11.6505 14.3183 11.9915 15.5333 9.125 17.6833C9.3635 17.6768 10.125 17.6008 10.2805 17.5753C12.0276 17.2681 13.6265 16.3984 14.8337 15.0987C16.041 13.7989 16.7904 12.1403 16.968 10.3753C16.7639 10.3675 16.5651 10.3078 16.3905 10.2018Z"/></symbol><symbol id="icon-hamburger" viewBox="0 0 18 18"><rect width="14" height="2" x="2" y="8" fill="currentColor" rx="0.5"/><rect width="14" height="2" x="2" y="3" fill="currentColor" rx="0.5"/><rect width="14" height="2" x="2" y="13" fill="currentColor" rx="0.5"/></symbol><symbol id="icon-hide-graticule" viewBox="0 0 18 18"><path d="M2.1135,10.1555H0A8.086,8.086,0,0,0,6.844,17V14.886A6.003,6.003,0,0,1,2.1135,10.1555Z"/><path d="M6.844,3.114V1A8.086,8.086,0,0,0,0,7.844H2.114A6.00252,6.00252,0,0,1,6.844,3.114Z"/><path d="M13.886,7.844H16A8.086,8.086,0,0,0,9.156,1V3.114A6.00252,6.00252,0,0,1,13.886,7.844Z"/><path d="M13.5,9.05a4.45,4.45,0,1,0,4.45,4.45A4.45,4.45,0,0,0,13.5,9.05Zm2.913,6.1335a.25.25,0,0,1,0,.3535l-.876.876a.25.25,0,0,1-.3535,0L13.5,14.7295,11.8165,16.413a.25.25,0,0,1-.3535,0l-.876-.876a.25.25,0,0,1,0-.3535L12.2705,13.5,10.587,11.8165a.25.25,0,0,1,0-.3535l.876-.876a.25.25,0,0,1,.3535,0L13.5,12.2705l1.6835-1.6835a.25.25,0,0,1,.3535,0l.876.876a.25.25,0,0,1,0,.3535L14.7295,13.5Z"/><path d="M10.056,8.4045A2.1445,2.1445,0,1,0,7.8235,11.132,6.172,6.172,0,0,1,10.056,8.4045Z"/></symbol><symbol id="icon-home" viewBox="0 0 18 18"><path stroke="{stroke}" d="M17.666,10.125,9.375,1.834a.53151.53151,0,0,0-.75,0L.334,10.125a.53051.53051,0,0,0,0,.75l.979.9785A.5.5,0,0,0,1.6665,12H2v4.5a.5.5,0,0,0,.5.5h4a.5.5,0,0,0,.5-.5v-5a.5.5,0,0,1,.5-.5h3a.5.5,0,0,1,.5.5v5a.5.5,0,0,0,.5.5h4a.5.5,0,0,0,.5-.5V12h.3335a.5.5,0,0,0,.3535-.1465l.979-.9785A.53051.53051,0,0,0,17.666,10.125Z"/></symbol><symbol id="icon-icechart" viewBox="0 0 84.544 64.762"><g transform="translate(-17.952 -29.086)"><path fill="currentColor" d="m17.952 29.086h84.544v64.762h-84.544zm78.075 6.1022-71.667 0.06146 0.0864 52.496h71.581zm-65.707 40.275h8.0563v5.4923h-8.0563zm13.915 0h6.5908v5.4923h-6.5908zm37.47-1.29e-4h7.8979l-0.06569 5.4313-7.8322 0.06486zm-25.021-0.24406h19.04v4.5159h-19.04zm-26.893-7.8104h60.336v4.8821h-60.336zm-0.0617-3.631 8.5236-14.921 6.0445 10.395 15.625-19.711 15.368 19.956 6.0983-10.784 8.5856 15.156h-5.9395l-2.5146-4.4229-2.7941 4.4229h-7.0652l-11.56-13.423-12.147 13.424-7.0734-0.06209-2.6722-4.4939-2.577 4.5549-5.9032-0.09154z"/></g></symbol><symbol id="icon-image" viewBox="0 0 22 22"><path fill="currentColor" d="M20.5,3.5H1.5A.5.5,0,0,0,1,4V18a.5.5,0,0,0,.5.5h19A.5.5,0,0,0,21,18V4A.5.5,0,0,0,20.5,3.5ZM19.5,5V15.981l-3.036-3.036a1.247,1.247,0,0,0-1.765,0L12.784,14.86,8.07,10.147a1.246,1.246,0,0,0-1.764,0L2.5,13.952V5Z"/></symbol><symbol id="icon-import" viewBox="0 0 18 18"><path d="M16.5,1H5.5a.5.5,0,0,0-.5.5v3a.5.5,0,0,0,.5.5h1A.5.5,0,0,0,7,4.5V3h8V15H7V13.5a.5.5,0,0,0-.5-.5h-1a.5.5,0,0,0-.5.5v3a.5.5,0,0,0,.5.5h11a.5.5,0,0,0,.5-.5V1.5A.5.5,0,0,0,16.5,1Z"/><path d="M8,12.6a.4.4,0,0,0,.4.4.39352.39352,0,0,0,.2635-.1l3.762-3.7225a.25.25,0,0,0,0-.35L8.666,5.1A.39352.39352,0,0,0,8.4025,5a.4.4,0,0,0-.4.4V8H1.5a.5.5,0,0,0-.5.5v1a.5.5,0,0,0,.5.5H8Z"/></symbol><symbol id="icon-info-outline" viewBox="0 0 18 18"><rect id="Canvas" width="18" height="18" opacity="0"/><path d="M10.075,6A1.075,1.075,0,1,1,9,4.925H9A1.075,1.075,0,0,1,10.075,6Zm.09173,6H10V8.2A.20005.20005,0,0,0,9.8,8H7.83324S7.25,8.01612,7.25,8.5c0,.48365.58325.5.58325.5H8v3H7.83325s-.58325.01612-.58325.5c0,.48365.58325.5.58325.5h2.3335s.58325-.01635.58325-.5C10.75,12.01612,10.16673,12,10.16673,12ZM9,.5A8.5,8.5,0,1,0,17.5,9,8.5,8.5,0,0,0,9,.5ZM9,15.6748A6.67481,6.67481,0,1,1,15.67484,9,6.67481,6.67481,0,0,1,9,15.6748Z"/></symbol><symbol id="icon-info" viewBox="0 0 18 18"><path d="M9,1a8,8,0,1,0,8,8A8,8,0,0,0,9,1ZM8.85,3.15a1.359,1.359,0,0,1,1.43109,1.28286q.00352.06452.00091.12914A1.332,1.332,0,0,1,8.85,5.9935a1.3525,1.3525,0,0,1-1.432-1.432A1.3585,1.3585,0,0,1,8.72033,3.14907Q8.78516,3.14643,8.85,3.15ZM11,13.5a.5.5,0,0,1-.5.5h-3a.5.5,0,0,1-.5-.5v-1a.5.5,0,0,1,.5-.5H8V9H7.5A.5.5,0,0,1,7,8.5v-1A.5.5,0,0,1,7.5,7h2a.5.5,0,0,1,.5.5V12h.5a.5.5,0,0,1,.5.5Z"/></symbol><symbol id="icon-layers" viewBox="0 0 18 18"><path d="M8.7875,8.915,1.4435,5.1755c-.1205-.0615-.1205-.1615,0-.223l7.344-3.74a.47149.47149,0,0,1,.425,0L16.5565,4.95c.1205.0615.1205.1615,0,.223L9.2125,8.915A.468.468,0,0,1,8.7875,8.915Z"/><path d="M16.557,12.9525l-2.3-1.1705L9,14.459,3.742,11.782l-2.3,1.1705c-.1205.0615-.1205.1615,0,.223L8.7875,16.915a.468.468,0,0,0,.425,0l7.3445-3.7395C16.677,13.114,16.677,13.014,16.557,12.9525Z"/><path d="M16.557,8.9525l-2.3-1.1705L9,10.459,3.742,7.782l-2.3,1.1705c-.1205.0615-.1205.1615,0,.223L8.7875,12.915a.468.468,0,0,0,.425,0L16.557,9.1755C16.677,9.114,16.677,9.014,16.557,8.9525Z"/></symbol><symbol id="icon-legend-list" viewBox="0 0 18 18"><rect width="4" height="4" x="1" y="1" rx="0.5"/><rect width="11" height="2" x="6" y="2" rx="0.25"/><rect width="11" height="2" x="6" y="8" rx="0.25"/><rect width="11" height="2" x="6" y="14" rx="0.25"/><rect width="4" height="4" x="1" y="7" rx="0.5"/><rect width="4" height="4" x="1" y="13" rx="0.5"/></symbol><symbol id="icon-magnify-glass" viewBox="0 0 24 24"><path fill="none" stroke="currentColor" stroke-linecap="round" stroke-linejoin="round" stroke-width="2" d="M11 18C14.866 18 18 14.866 18 11C18 7.13401 14.866 4 11 4C7.13401 4 4 7.13401 4 11C4 14.866 7.13401 18 11 18Z"/><path fill="none" stroke="currentColor" stroke-linecap="round" stroke-linejoin="round" stroke-width="2" d="M20 20L16 16"/></symbol><symbol id="icon-map-location" viewBox="0 0 18 18"><path d="M9,.9625a6,6,0,0,0-6,6c0,3.3135,6,10.875,6,10.875s6-7.5615,6-10.875A6,6,0,0,0,9,.9625ZM9,9.325A2.325,2.325,0,1,1,11.325,7,2.325,2.325,0,0,1,9,9.325Z"/></symbol><symbol id="icon-map-polygon" viewBox="0 0 18 18"><path d="M17.75,1h-3.5a.25.25,0,0,0-.25.25V3.456L10.9945,5.2365A.25.25,0,0,0,10.75,5H7.25A.25.25,0,0,0,7,5.25v.476L4,4.615V2.25A.25.25,0,0,0,3.75,2H.25A.25.25,0,0,0,0,2.25v3.5A.25.25,0,0,0,.25,6H2.1885L4.034,12H3.25a.25.25,0,0,0-.25.25v3.5a.25.25,0,0,0,.25.25h3.5A.25.25,0,0,0,7,15.75V14.465l5-.8335V14.75a.25.25,0,0,0,.25.25h3.5a.25.25,0,0,0,.25-.25v-3.5a.25.25,0,0,0-.25-.25h-.7245L15.95,5h1.8A.25.25,0,0,0,18,4.75V1.25A.25.25,0,0,0,17.75,1ZM8,6h2V8H8ZM3,5H1V3H3ZM6,15H4V13H6Zm6-3.75v1.368L7,13.45v-1.2A.25.25,0,0,0,6.75,12H5.081L3.2345,6H3.75A.25.25,0,0,0,4,5.75V5.6815l3,1.111V8.75A.25.25,0,0,0,7.25,9h3.5A.25.25,0,0,0,11,8.75V6.396l3-1.778V4.75a.25.25,0,0,0,.25.25h.686l-.923,6H12.25A.25.25,0,0,0,12,11.25ZM15,14H13V12h2ZM17,4H15V2h2Z"/></symbol><symbol id="icon-map-polyline" viewBox="0 0 18 18"><g stroke="currentColor" stroke-linejoin="round" stroke-width="1"><rect width="3" height="3" x="14.53" y="1.53" fill="currentColor" stroke="currentColor"/><rect width="3" height="3" x="12" y="8.9936" fill="currentColor" stroke="currentColor"/><rect width="3" height="3" x="3.3836" y="5.9084" fill="currentColor" stroke="currentColor"/><rect width="3" height="3" x=".52961" y="12.984" fill="currentColor" stroke="currentColor"/><path stroke-width="1.25" d="m1.9998 12.984 2.854-4.1348"/><path stroke-width="1.25" d="m6.324 7.3786 5.6419 3.1225"/><path stroke-width="1.25" d="m13.47 8.9936 2.5296-4.5232"/></g></symbol><symbol id="icon-measure" viewBox="0 0 18 18"><path d="M12.5355,1.222,1.222,12.5355a.5.5,0,0,0,0,.707L4.7575,16.778a.5.5,0,0,0,.707,0L7.232,15.0105l-2.65-2.65a.25.25,0,0,1,0-.3535l.3535-.3535a.25.25,0,0,1,.3535,0l2.65,2.65,2.8285-2.8285L8.8225,9.5305a.25.25,0,0,1,0-.3535l.354-.354a.25.25,0,0,1,.3535,0l1.9445,1.945L14.303,7.9395l-2.65-2.65a.25.25,0,0,1,0-.3535l.3535-.3535a.25.25,0,0,1,.35355-.00045l.00045.00045,2.65,2.65L16.778,5.465a.5.5,0,0,0,0-.707L13.2425,1.222A.5.5,0,0,0,12.5355,1.222Z" class="currentColor"/></symbol><symbol id="icon-menu" viewBox="0 0 18 18"><rect width="14" height="2" x="2" y="8" rx="0.5"/><rect width="14" height="2" x="2" y="3" rx="0.5"/><rect width="14" height="2" x="2" y="13" rx="0.5"/></symbol><symbol id="icon-met-globe" viewBox="0 0 21.623 21.624"><g transform="translate(-71.913 -72.587)"><ellipse cx="82.725" cy="83.399" fill="transparent" rx="10.812" ry="10.812"/><path fill="currentColor" d="m82.123 72.587c-1.2271 0.25765-2.3958 1.2955-3.322 2.985-0.2761 0.50362-0.52606 1.0626-0.74638 1.6651 1.2422 0.31998 2.6166 0.51943 4.0684 0.56273zm1.2032 0v5.2128c1.4518-0.0433 2.8262-0.24275 4.0684-0.56273-0.22031-0.60249-0.47028-1.1614-0.74638-1.6651-0.92622-1.6895-2.0949-2.7274-3.322-2.985zm-4.3105 0.58775c-1.6151 0.58999-3.0498 1.5549-4.2005 2.79 0.03931 0.02247 0.07691 0.04532 0.11703 0.06751 0.58609 0.32416 1.2466 0.61273 1.9651 0.8592 0.24644-0.68199 0.53002-1.3201 0.84931-1.9025 0.37321-0.68077 0.7988-1.2933 1.269-1.8142zm7.4177 0c0.47023 0.52098 0.89581 1.1335 1.269 1.8142 0.3193 0.58243 0.60284 1.2208 0.84884 1.903 0.71878-0.24651 1.3793-0.53543 1.9656-0.85967 0.04012-0.02218 0.07772-0.04503 0.11703-0.06751-1.1507-1.2351-2.5853-2.2-4.2005-2.79zm-12.4 3.7304c-1.2307 1.6607-2.001 3.6868-2.1207 5.8893h3.9241c0.04651-1.6981 0.28809-3.3042 0.69091-4.7501-0.78648-0.26896-1.5166-0.58836-2.1761-0.95314-0.10857-0.06005-0.21341-0.12316-0.3182-0.186zm17.382 0c-0.10479 0.06284-0.20963 0.12596-0.3182 0.186-0.66002 0.36504-1.3909 0.6846-2.178 0.95362 0.40162 1.446 0.64214 3.0521 0.68856 4.7497h3.9283c-0.1197-2.2025-0.89-4.2286-2.1207-5.8893zm-13.731 1.4861c-0.36762 1.3287-0.59666 2.8207-0.64344 4.4032h5.0817v-3.789c-1.5776-0.04356-3.0751-0.25758-4.4383-0.61419zm10.08 0c-1.3632 0.35646-2.8608 0.57017-4.4383 0.61371v3.7894h5.0817c-0.04677-1.5824-0.27582-3.0744-0.64344-4.4032zm-15.852 5.6117c0.1197 2.2025 0.89 4.2286 2.1207 5.8893 0.10479-0.06284 0.20963-0.12596 0.3182-0.186 0.65952-0.36477 1.3899-0.68425 2.1761-0.95362-0.40275-1.4458-0.64442-3.0518-0.69091-4.7497zm5.1283 0c0.04675 1.5817 0.27565 3.073 0.64297 4.4013 1.3633-0.35746 2.8607-0.57248 4.4388-0.61608v-3.7852zm6.285 0v3.7852c1.578 0.04359 3.0755 0.25862 4.4388 0.61608 0.36732-1.3283 0.59621-2.8196 0.64297-4.4013zm6.2821 0c-0.04644 1.6974-0.28689 3.3033-0.68856 4.7492 0.78676 0.26946 1.5176 0.5891 2.1776 0.95409 0.10857 0.06005 0.21341 0.12316 0.3182 0.186 1.2307-1.6607 2.001-3.6868 2.1207-5.8893zm-7.4854 4.9947c-1.4518 0.0433-2.8262 0.24275-4.0684 0.56273 0.22031 0.60249 0.47028 1.1614 0.74638 1.6651 0.92622 1.6895 2.0949 2.7274 3.322 2.985zm1.2032 0v5.2128c1.2271-0.25765 2.3958-1.2955 3.322-2.985 0.27609-0.50362 0.52606-1.0626 0.74638-1.6651-1.2422-0.31998-2.6166-0.51943-4.0684-0.56273zm5.2251 0.90782c-0.24605 0.68222-0.52953 1.3205-0.84884 1.903-0.37321 0.68077-0.79879 1.2933-1.269 1.8142 1.6151-0.58999 3.0498-1.5549 4.2005-2.79-0.03931-0.02247-0.07692-0.04532-0.11703-0.06751-0.58624-0.32424-1.2468-0.61316-1.9656-0.85967zm-11.654 4.72e-4c-0.71855 0.24647-1.379 0.53504-1.9651 0.8592-0.04012 0.02218-0.07772 0.04504-0.11703 0.06751 1.1507 1.2351 2.5853 2.2 4.2005 2.79-0.47023-0.52098-0.89581-1.1335-1.269-1.8142-0.31929-0.58241-0.60286-1.2205-0.84931-1.9025z"/></g></symbol><symbol id="icon-minimise-ui" viewBox="0 0 18 18"><path d="M16.5,2H1.5a.5.5,0,0,0-.5.5v13a.5.5,0,0,0,.5.5h15a.5.5,0,0,0,.5-.5V2.5A.5.5,0,0,0,16.5,2ZM16,15H2V5H16Z"/><rect width="1" height="1" x="3" y="6"/><rect width="1" height="1" x="3" y="11"/><rect width="2" height="1" x="5" y="6"/><rect width="2" height="1" x="8" y="6"/><rect width="2" height="1" x="11" y="6"/><rect width="2" height="1" x="5" y="13"/><rect width="2" height="1" x="8" y="13"/><rect width="2" height="1" x="11" y="13"/><rect width="1" height="1" x="14" y="6"/><rect width="1" height="1" x="14" y="8"/><rect width="1" height="2" x="3" y="8"/><rect width="1" height="2" x="14" y="10"/><rect width="1" height="1" x="3" y="13"/><rect width="1" height="1" x="14" y="13"/></symbol><symbol id="icon-more" viewBox="0 0 22 22"><circle cx="11" cy="11" r="2"/><circle cx="17" cy="11" r="2"/><circle cx="5" cy="11" r="2"/></symbol><symbol id="icon-navigate" viewBox="0 0 18 18"><path d="M5,3l9,9H9L5,16ZM4.25,1.027a.25.25,0,0,0-.25.25v16.39a.25.25,0,0,0,.25.25.245.245,0,0,0,.175-.0735L9.262,13h6.5a.25.25,0,0,0,.177-.427L4.427,1.1A.245.245,0,0,0,4.25,1.027Z" class="currentColor"/></symbol><symbol id="icon-no-navigate" viewBox="0 0 18 18"><path d="M5,3l9,9H9L5,16ZM4.25,1.027a.25.25,0,0,0-.25.25v16.39a.25.25,0,0,0,.25.25.245.245,0,0,0,.175-.0735L9.262,13h6.5a.25.25,0,0,0,.177-.427L4.427,1.1A.245.245,0,0,0,4.25,1.027Z" class="currentColor"/><line x1="0.635231" x2="15.6352" y1="17.658" y2="1.65803" stroke="currentColor"/></symbol><symbol id="icon-page-share" viewBox="0 0 19 18"><path d="M15.5 11.8488V15H3.5V4H10.5426C10.6752 4 10.8024 3.94732 10.8961 3.85355C10.9899 3.75979 11.0426 3.63261 11.0426 3.5V2.5C11.0426 2.36739 10.9899 2.24022 10.8961 2.14645C10.8024 2.05268 10.6752 2 10.5426 2L2 2C1.86739 2 1.74021 2.05268 1.64645 2.14645C1.55268 2.24021 1.5 2.36739 1.5 2.5V16.5C1.5 16.6326 1.55268 16.7598 1.64645 16.8536C1.74021 16.9473 1.86739 17 2 17H17C17.1326 17 17.2598 16.9473 17.3536 16.8536C17.4473 16.7598 17.5 16.6326 17.5 16.5V11.8488C17.5 11.7162 17.4473 11.589 17.3536 11.4952C17.2598 11.4015 17.1326 11.3488 17 11.3488H16C15.8674 11.3488 15.7402 11.4015 15.6464 11.4952C15.5527 11.589 15.5 11.7162 15.5 11.8488Z"/><path d="M13.5266 2.40002V5.00002C8.00338 5.01706 6.50502 6.54041 6.45612 11.75C6.45612 11.8826 6.5088 12.0098 6.60257 12.1036C6.69634 12.1973 6.82352 12.25 6.95612 12.25H7.95612C8.08873 12.25 8.21591 12.1973 8.30968 12.1036C8.40344 12.0098 8.45612 11.8826 8.45612 11.75C8.53731 7.76536 9.91146 7.02167 13.5266 7.00002V9.60002C13.5266 9.70611 13.5687 9.80785 13.6438 9.88286C13.7188 9.95788 13.8205 10 13.9266 10C14.0238 10.0004 14.1176 9.96474 14.1901 9.90002L17.4546 6.17552C17.5004 6.12879 17.5261 6.06596 17.5261 6.00052C17.5261 5.93508 17.5004 5.87225 17.4546 5.82552L14.1926 2.10002C14.1195 2.03472 14.0246 1.99906 13.9266 2.00002C13.8205 2.00002 13.7188 2.04216 13.6438 2.11718C13.5687 2.19219 13.5266 2.29393 13.5266 2.40002Z"/></symbol><symbol id="icon-paste" viewBox="0 0 18 18"><path d="M14,3V5.5a.5.5,0,0,1-.5.5h-9A.5.5,0,0,1,4,5.5V3H2.5a.5.5,0,0,0-.5.5v13a.5.5,0,0,0,.5.5h13a.5.5,0,0,0,.5-.5V3.5a.5.5,0,0,0-.5-.5Z"/><path d="M11,3V2A2,2,0,0,0,7,2V3H5V5h8V3ZM10,3H8V2a1,1,0,0,1,2,0Z"/></symbol><symbol id="icon-polar-route" viewBox="0 0 19 18"><path d="M13.7231 0.742126C12.9692 0.742126 12.2461 1.04164 11.713 1.57478C11.1798 2.10792 10.8803 2.83101 10.8803 3.58498C10.8803 5.15494 13.7231 8.73764 13.7231 8.73764C13.7231 8.73764 16.566 5.15494 16.566 3.58498C16.566 2.83101 16.2665 2.10792 15.7333 1.57478C15.2002 1.04164 14.4771 0.742126 13.7231 0.742126ZM13.7231 4.70435C13.5053 4.70435 13.2923 4.63974 13.1111 4.51869C12.93 4.39765 12.7888 4.2256 12.7054 4.02431C12.622 3.82302 12.6002 3.60152 12.6427 3.38783C12.6852 3.17414 12.7901 2.97785 12.9442 2.82379C13.0983 2.66973 13.2945 2.56481 13.5082 2.52231C13.7219 2.4798 13.9434 2.50162 14.1447 2.58499C14.346 2.66837 14.5181 2.80957 14.6391 2.99073C14.7601 3.17188 14.8248 3.38487 14.8248 3.60274C14.8248 3.89491 14.7087 4.1751 14.5021 4.3817C14.2955 4.58829 14.0153 4.70435 13.7231 4.70435Z"/><path fill-rule="evenodd" d="M12.6528 13.1894C13.0295 13.0597 13.4414 12.992 13.8587 12.9911C14.4433 12.9909 15.0136 13.1211 15.4917 13.3637C15.9698 13.6063 16.3323 13.9496 16.5295 14.3465C16.7267 14.7434 16.749 15.1746 16.5934 15.581C16.4379 15.9874 16.1119 16.3493 15.6603 16.617C15.2086 16.8846 14.6533 17.0451 14.0704 17.0764C13.4875 17.1077 12.9053 17.0083 12.4037 16.7918C11.9021 16.5752 11.5056 16.2522 11.2683 15.8668C11.031 15.4815 10.9646 15.0527 11.0782 14.6391L6.97155 13.4881C6.8414 13.5953 6.69633 13.6927 6.53862 13.7785C6.39233 13.8575 6.23579 13.926 6.07119 13.9831C6.06358 13.9858 6.05625 13.9889 6.04891 13.992C6.03984 13.9958 6.03075 13.9997 6.02109 14.0029C5.86957 14.0517 5.71236 14.0909 5.5513 14.1198C5.53577 14.1227 5.52081 14.1265 5.50587 14.1303C5.48762 14.135 5.46938 14.1396 5.45015 14.1426C5.03565 14.209 4.60579 14.2074 4.19229 14.1379C3.77878 14.0684 3.39219 13.9328 3.06104 13.7411C2.72988 13.5495 2.46262 13.3066 2.27898 13.0305C2.09534 12.7544 2 12.452 2 12.1458C2 11.8395 2.09534 11.5372 2.27898 11.2611C2.46262 10.9849 2.72988 10.7421 3.06104 10.5504C3.39219 10.3588 3.77878 10.2232 4.19229 10.1537C4.60579 10.0842 5.03565 10.0826 5.45015 10.1489C5.46857 10.152 5.48632 10.1564 5.50411 10.1609C5.51965 10.1648 5.53521 10.1687 5.5513 10.1717C5.71236 10.2007 5.86957 10.2398 6.02109 10.2887C6.02983 10.2916 6.0382 10.2952 6.04665 10.2987C6.05463 10.3021 6.06269 10.3055 6.07119 10.3084C6.23707 10.3663 6.39486 10.4354 6.5424 10.515C6.69886 10.6002 6.84267 10.6969 6.97155 10.8034L10.9354 9.13302C10.801 8.65215 10.9145 8.15244 11.2546 7.72765C11.464 7.46614 11.6016 7.4184 11.9809 7.18058C12.2025 7.50966 12.4518 7.80189 12.6453 8.07041C12.3922 8.28458 12.3102 8.43036 12.298 8.7379C12.298 8.94018 12.3811 9.13791 12.5369 9.3061C12.6927 9.47428 12.9142 9.60537 13.1733 9.68278C13.4324 9.76018 13.7174 9.78044 13.9925 9.74098C14.2675 9.70151 14.5202 9.60411 14.7185 9.46108C14.9168 9.31805 15.0518 9.13582 15.1065 8.93743C15.1612 8.73904 15.1332 8.5334 15.0258 8.34652C14.9213 8.16452 14.8739 8.16468 14.7882 8.07041C14.9762 7.80981 15.2513 7.49997 15.4671 7.18058C15.8227 7.39911 15.9538 7.51053 16.1872 7.8593C16.4829 8.30105 16.5449 8.80545 16.3616 9.27784C16.1782 9.75022 15.7622 10.1581 15.1916 10.425C14.6209 10.6918 13.9349 10.7993 13.2622 10.7272C12.5895 10.6551 11.9764 10.4084 11.538 10.0334L7.60724 11.6932C7.70819 11.9916 7.70819 12.303 7.60724 12.6014L11.6808 13.7411C11.9442 13.5076 12.2762 13.3191 12.6528 13.1894ZM13.8587 16.0593C13.5783 16.0593 13.3042 15.9993 13.071 15.8869C12.8378 15.7746 12.6561 15.6148 12.5488 15.4279C12.4414 15.2411 12.4134 15.0354 12.4681 14.837C12.5228 14.6387 12.6578 14.4564 12.8561 14.3134C13.0544 14.1704 13.3071 14.073 13.5821 14.0335C13.8571 13.994 14.1422 14.0143 14.4013 14.0917C14.6604 14.1691 14.8819 14.3002 15.0377 14.4684C15.1935 14.6366 15.2766 14.8343 15.2766 15.0366C15.2766 15.3078 15.1272 15.5679 14.8613 15.7597C14.5954 15.9515 14.2348 16.0593 13.8587 16.0593Z" clip-rule="evenodd"/></symbol><symbol id="icon-properties" viewBox="0 0 22 22"><path d="M19,4.5H9.394a2.748,2.748,0,0,0-5.288,0H3a.5.5,0,0,0-.5.5v.5A.5.5,0,0,0,3,6H4.106A2.748,2.748,0,0,0,9.394,6H19a.5.5,0,0,0,.5-.5V5A.5.5,0,0,0,19,4.5ZM6.75,6.6A1.35,1.35,0,1,1,8.1,5.25,1.35,1.35,0,0,1,6.75,6.6Z" class="currentColor"/><path d="M19,10H17.894a2.748,2.748,0,0,0-5.288,0H3a.5.5,0,0,0-.5.5V11a.5.5,0,0,0,.5.5h9.606a2.748,2.748,0,0,0,5.288,0H19a.5.5,0,0,0,.5-.5v-.5A.5.5,0,0,0,19,10Zm-3.75,2.1a1.35,1.35,0,1,1,1.35-1.35A1.35,1.35,0,0,1,15.25,12.1Z" class="currentColor"/><path d="M19,15.5H13.394a2.748,2.748,0,0,0-5.288,0H3a.5.5,0,0,0-.5.5v.5A.5.5,0,0,0,3,17H8.106a2.748,2.748,0,0,0,5.288,0H19a.5.5,0,0,0,.5-.5V16A.5.5,0,0,0,19,15.5Zm-8.25,2.1a1.35,1.35,0,1,1,1.35-1.35A1.35,1.35,0,0,1,10.75,17.6Z" class="currentColor"/></symbol><symbol id="icon-refresh-data" viewBox="0 0 18 18"><ellipse cx="9" cy="3.5" rx="8" ry="2.5"/><path d="M7.4,15.1V13.45a4.80943,4.80943,0,0,1,.058-.55,6.53769,6.53769,0,0,1,.1855-.812C5.1165,11.923,1.75,11.322,1,10.135V14.5c0,1.2095,2.75,2.218,6.4,2.45Z"/><path d="M13.5,7.4a6.05744,6.05744,0,0,1,3.15.925l.2075-.212L17,7.967V5.135c-1.2235,1.5475-5.532,2-8,2s-7.106-.584-8-2V8.5c0,1.28,3.079,2.3335,7.047,2.4805A6.08649,6.08649,0,0,1,13.5,7.4Z"/><path d="M13.5,16.7175a3.106,3.106,0,0,1-2.3855-1.0615l1.154-1.156H9v3.275l1.25-1.2545A4.372,4.372,0,0,0,13.5,18,4.65,4.65,0,0,0,18,13.5H16.86A3.4445,3.4445,0,0,1,13.5,16.7175Z"/><path d="M16.779,10.479A4.60747,4.60747,0,0,0,13.5,9,4.65,4.65,0,0,0,9,13.5h1.14a3.4445,3.4445,0,0,1,3.36-3.2175,3.1415,3.1415,0,0,1,2.4355,1.058L14.8,12.5H18V9.2325Z"/></symbol><symbol id="icon-refresh" viewBox="0 0 18 18"><path d="M16.337,10H15.39a.6075.6075,0,0,0-.581.469A5.7235,5.7235,0,0,1,5.25,13.006l-.346-.3465L6.8815,10.682A.392.392,0,0,0,7,10.4a.4.4,0,0,0-.377-.4H1.25a.25.25,0,0,0-.25.25v5.375A.4.4,0,0,0,1.4,16a.3905.3905,0,0,0,.28-.118l1.8085-1.8085.178.1785a8.09048,8.09048,0,0,0,3.642,2.1655,7.715,7.715,0,0,0,9.4379-5.47434q.04733-.178.0861-.35816A.5.5,0,0,0,16.337,10Z"/><path d="M16.6,2a.3905.3905,0,0,0-.28.118L14.5095,3.9265l-.178-.1765a8.09048,8.09048,0,0,0-3.642-2.1655A7.715,7.715,0,0,0,1.25269,7.06072q-.04677.17612-.08519.35428A.5.5,0,0,0,1.663,8H2.61a.6075.6075,0,0,0,.581-.469A5.7235,5.7235,0,0,1,12.75,4.994l.346.3465L11.1185,7.318A.392.392,0,0,0,11,7.6a.4.4,0,0,0,.377.4H16.75A.25.25,0,0,0,17,7.75V2.377A.4.4,0,0,0,16.6,2Z"/></symbol><symbol id="icon-search-globe" viewBox="0 0 18 18"><path d="M3.573,6.8845C3.05,4.991,4.4,4.176,4.267,2.558A8.03648,8.03648,0,0,0,1,9c0,4.556,3.9715,7.271,6.777,7.866a3.44943,3.44943,0,0,0,.523.084c1-2.55-.8865-5.3945-2.1315-7.247C5.131,8.159,4.189,9.113,3.573,6.8845Z"/><path d="M14.5915,8.979a3.01073,3.01073,0,0,0-2.5475,2.4615,2.976,2.976,0,0,0,.9675,2.742L11.135,17.11a.25.25,0,0,0,.07538.34543l.00012.00007.421.27a.25.25,0,0,0,.34542-.07538L11.977,17.65l1.873-2.9275a3,3,0,1,0,.7415-5.7435ZM15,13.95a2,2,0,1,1,2-2A2,2,0,0,1,15,13.95Z"/><path d="M16.0315,5.259c-.096-.1745-.2-.342-.31-.509-.0185.0095-.035.022-.0545.031-.625.2915-.7115.3775-1,0a.788.788,0,0,1,.1735-1.163A7.992,7.992,0,0,0,9.013,1.0075c1.0135.014,2.223.765,1.6065,1.9645.093-.1905-2.0135-.645-2.3-.645-.386,0,.7875-1.4445.68-1.3195A8.04239,8.04239,0,0,0,5.692,1.719c.547.353,1.1555.23,1.772.382a1.50711,1.50711,0,0,1,.55.226,1.85559,1.85559,0,0,0-.55-.226c-.909-.1055.44,2.3885.3885,2.057a1.15173,1.15173,0,0,1,2.2825-.0735A1.871,1.871,0,0,1,9.7165,5.217c-.7055.927-.85,2.577-1.2,2.155-3.2955-1.35-2.9325.4355-1.85,1.629,1.732,1.91.853.196,3.121,1.196a13.23338,13.23338,0,0,0,1.458.525A4.01149,4.01149,0,0,1,14.512,7.9875c.116-.015.23-.017.3445-.0225-.0105-.161-.018-.3345-.0225-.5315a2.883,2.883,0,0,1,.833-2A1.55013,1.55013,0,0,1,16.0315,5.259Z"/></symbol><symbol id="icon-send-message" viewBox="0 0 18 18"><path d="M16.5955,2.5565.9,7.239a.25.25,0,0,0-.0405.4635L4.82,9.679Z" class="currentColor"/><path d="M6.5445,10.516l5.9685,3a.5.5,0,0,0,.67121-.22243l.00029-.00057L17.818,3.182Z" class="currentColor"/><path d="M5.04,11.625v3.8195a.3565.3565,0,0,0,.587.272l2.68-2.258Z" class="currentColor"/></symbol><symbol id="icon-settings" viewBox="0 0 18 18"><path d="M16.45 8.58279H14.8945C14.7454 7.77639 14.4319 7.00931 13.9735 6.32929L15.076 5.22629C15.1274 5.17518 15.1682 5.11441 15.196 5.04748C15.2239 4.98055 15.2382 4.90878 15.2382 4.83629C15.2382 4.7638 15.2239 4.69203 15.196 4.6251C15.1682 4.55817 15.1274 4.4974 15.076 4.44629L14.2395 3.61029C14.1884 3.55889 14.1276 3.5181 14.0607 3.49027C13.9938 3.46243 13.922 3.4481 13.8495 3.4481C13.777 3.4481 13.7053 3.46243 13.6383 3.49027C13.5714 3.5181 13.5106 3.55889 13.4595 3.61029L12.357 4.71279C11.6771 4.25425 10.91 3.94089 10.1035 3.79229V2.23629C10.1035 2.16377 10.0892 2.09196 10.0613 2.025C10.0335 1.95804 9.99263 1.89726 9.94118 1.84614C9.88974 1.79502 9.8287 1.75458 9.76156 1.72715C9.69443 1.69971 9.62253 1.68583 9.55001 1.68629H8.45001C8.30414 1.68629 8.16425 1.74424 8.0611 1.84738C7.95796 1.95053 7.90001 2.09042 7.90001 2.23629V3.79229C7.09354 3.94089 6.32639 4.25425 5.64651 4.71279L4.54651 3.61029C4.4954 3.55889 4.43463 3.5181 4.3677 3.49027C4.30077 3.46243 4.229 3.4481 4.15651 3.4481C4.08402 3.4481 4.01225 3.46243 3.94532 3.49027C3.87839 3.5181 3.81762 3.55889 3.76651 3.61029L2.92401 4.44629C2.87261 4.4974 2.83182 4.55817 2.80399 4.6251C2.77615 4.69203 2.76183 4.7638 2.76183 4.83629C2.76183 4.90878 2.77615 4.98055 2.80399 5.04748C2.83182 5.11441 2.87261 5.17518 2.92401 5.22629L4.02651 6.32929C3.56815 7.00931 3.25465 7.77639 3.10551 8.58279H1.55001C1.47749 8.58279 1.40568 8.59713 1.33872 8.62499C1.27177 8.65285 1.21098 8.69367 1.15986 8.74512C1.10874 8.79656 1.0683 8.85761 1.04087 8.92474C1.01344 8.99187 0.99955 9.06377 1.00001 9.13629V10.2363C1.00001 10.3822 1.05796 10.5221 1.1611 10.6252C1.26425 10.7283 1.40414 10.7863 1.55001 10.7863H3.10551C3.25439 11.5928 3.56791 12.3599 4.02651 13.0398L2.92401 14.1458C2.87261 14.1969 2.83182 14.2577 2.80399 14.3246C2.77615 14.3915 2.76183 14.4633 2.76183 14.5358C2.76183 14.6083 2.77615 14.68 2.80399 14.747C2.83182 14.8139 2.87261 14.8747 2.92401 14.9258L3.76051 15.7623C3.81162 15.8137 3.87239 15.8545 3.93932 15.8823C4.00625 15.9101 4.07802 15.9245 4.15051 15.9245C4.223 15.9245 4.29477 15.9101 4.3617 15.8823C4.42863 15.8545 4.4894 15.8137 4.54051 15.7623L5.64301 14.6598C6.32289 15.1183 7.09004 15.4317 7.89651 15.5803V17.1363C7.89651 17.2088 7.91085 17.2806 7.93871 17.3476C7.96657 17.4145 8.00739 17.4753 8.05884 17.5264C8.11028 17.5776 8.17133 17.618 8.23846 17.6454C8.30559 17.6729 8.37749 17.6868 8.45001 17.6863H9.55001C9.69588 17.6863 9.83578 17.6283 9.93892 17.5252C10.0421 17.4221 10.1 17.2822 10.1 17.1363V15.5803C10.9065 15.4317 11.6736 15.1183 12.3535 14.6598L13.456 15.7623C13.5071 15.8137 13.5679 15.8545 13.6348 15.8823C13.7018 15.9101 13.7735 15.9245 13.846 15.9245C13.9185 15.9245 13.9903 15.9101 14.0572 15.8823C14.1241 15.8545 14.1849 15.8137 14.236 15.7623L15.0725 14.9258C15.1239 14.8747 15.1647 14.8139 15.1925 14.747C15.2204 14.68 15.2347 14.6083 15.2347 14.5358C15.2347 14.4633 15.2204 14.3915 15.1925 14.3246C15.1647 14.2577 15.1239 14.1969 15.0725 14.1458L13.97 13.0433C14.4286 12.3634 14.7421 11.5963 14.891 10.7898H16.45C16.5225 10.7898 16.5943 10.7755 16.6613 10.7476C16.7283 10.7197 16.789 10.6789 16.8402 10.6275C16.8913 10.576 16.9317 10.515 16.9592 10.4478C16.9866 10.3807 17.0005 10.3088 17 10.2363V9.13629C17.0005 9.06377 16.9866 8.99187 16.9592 8.92474C16.9317 8.85761 16.8913 8.79656 16.8402 8.74512C16.789 8.69367 16.7283 8.65285 16.6613 8.62499C16.5943 8.59713 16.5225 8.58279 16.45 8.58279ZM11.207 9.68629C11.207 10.1228 11.0776 10.5495 10.8351 10.9124C10.5926 11.2754 10.2479 11.5583 9.84459 11.7253C9.44132 11.8923 8.99756 11.936 8.56945 11.8509C8.14133 11.7657 7.74808 11.5555 7.43943 11.2469C7.13077 10.9382 6.92058 10.545 6.83542 10.1169C6.75026 9.68874 6.79397 9.24498 6.96101 8.84171C7.12805 8.43843 7.41093 8.09375 7.77387 7.85124C8.13681 7.60873 8.56351 7.47929 9.00001 7.47929C9.58534 7.47929 10.1467 7.71181 10.5606 8.12571C10.9745 8.5396 11.207 9.10096 11.207 9.68629Z"/></symbol><symbol id="icon-ship" viewBox="0 0 18 18"><path d="M0,11.40106V13c0,2.4812,2.70746,2.0531,2.97821,4.57617a.49448.49448,0,0,0,.5.42377L9,18V9L.39154,10.913A.50007.50007,0,0,0,0,11.40106Z"/><path d="M17.60846,10.913,9,9l1,9,4.52179-.00006a.49448.49448,0,0,0,.5-.42377C15.29254,15.0531,18,15.4812,18,13V11.40106A.50006.50006,0,0,0,17.60846,10.913Z"/><path d="M16,9l-.02326-6.50183a.5.5,0,0,0-.5-.49817H11V.5a.5.5,0,0,0-.5-.5h-3A.5.5,0,0,0,7,.5V2H2.5a.5.5,0,0,0-.5.5V9L8.98664,7.50287ZM4,4H14V5H4Z"/></symbol><symbol id="icon-show-graticule" viewBox="0 0 18 18"><circle cx="9" cy="9" r="2.15" class="fill"/><path d="M3.1135,10.1555H1A8.086,8.086,0,0,0,7.844,17V14.8865A6.00351,6.00351,0,0,1,3.1135,10.1555Z"/><path d="M14.8865,10.1555a6.0035,6.0035,0,0,1-4.7305,4.731V17A8.086,8.086,0,0,0,17,10.1555Z"/><path d="M7.844,3.114V1A8.0855,8.0855,0,0,0,1,7.844H3.114A6,6,0,0,1,7.844,3.114Z"/><path d="M14.886,7.844H17A8.0855,8.0855,0,0,0,10.156,1V3.114A6,6,0,0,1,14.886,7.844Z"/></symbol><symbol id="icon-subtract" viewBox="0 0 18 18"><path d="M14.5,9.5a.5.5,0,0,1-.5.5h-10A.5.5,0,0,1,4,9.5v-1A.5.5,0,0,1,4.5,8h9a.5.5,0,0,1,.5.5Z"/></symbol><symbol id="icon-target" viewBox="0 0 18 18"><path d="M11.179,8.009l.652.64A2.25,2.25,0,1,1,8.659,11.84l-.65-.662a3,3,0,1,0,3.17-3.169Z"/><path d="M11,2a8.977,8.977,0,0,0-2.891.483l.312.315A1.987,1.987,0,0,1,9,4.206V5.3A6.067,6.067,0,1,1,5.3,9H4.206A1.99,1.99,0,0,1,2.8,8.421l-.316-.312A9,9,0,1,0,11,2Z"/><path d="M3.533.485,2.618,2.618.485,3.533a.25.25,0,0,0-.078.407L3.854,7.355a.5.5,0,0,0,.352.145H6.5l3.22,3.28a.75.75,0,0,0,1.06-1.06L7.5,6.5V4.206a.5.5,0,0,0-.145-.352L3.94.407A.25.25,0,0,0,3.533.485Z"/></symbol><symbol id="icon-trash" viewBox="0 0 18 18"><path d="M13.7455,4l-1.154,12H4.4085L3.2545,4ZM11,1H6A1,1,0,0,0,5,2V3H1.25A.25.25,0,0,0,1,3.25v.5A.25.25,0,0,0,1.25,4h1L3.4565,16.55a.5.5,0,0,0,.5.45H13.046a.5.5,0,0,0,.5-.45L14.75,4h1A.25.25,0,0,0,16,3.75v-.5A.25.25,0,0,0,15.75,3H12V2A1,1,0,0,0,11,1ZM6,3V2h5V3Z"/><path d="M8.5,14.5A.5.5,0,0,1,8,14V6A.5.5,0,0,1,9,6v8A.5.5,0,0,1,8.5,14.5Z"/><path d="M10.467,14.5a.5.5,0,0,1-.46718-.5308L10,13.9665l.5355-7.9975a.50112.50112,0,1,1,1,.067L11,14.034a.5.5,0,0,1-.53176.46608Z"/><path d="M6.533,14.5a.5.5,0,0,0,.46718-.5308L7,13.9665,6.4625,5.969a.50112.50112,0,1,0-1,.067l.5355,8a.5.5,0,0,0,.53348.46411Z"/></symbol><symbol id="icon-up-down-chevron" viewBox="0 0 18 18"><path d="M14,5.99a1,1,0,0,1-1.7055.7055L9.006,3.409,5.717,6.695A1,1,0,0,1,4.28,5.3085l.0245-.0245L8.3,1.2925a1,1,0,0,1,1.4125,0L13.707,5.284A.99446.99446,0,0,1,14,5.99Z"/><path d="M4,12.01a1,1,0,0,1,1.7055-.7055l3.289,3.286,3.289-3.286a1,1,0,0,1,1.437,1.3865l-.0245.0245L9.7,16.707a1,1,0,0,1-1.4125,0L4.293,12.7155A.99452.99452,0,0,1,4,12.01Z"/></symbol><symbol id="icon-warning" viewBox="0 0 19 18"><path d="M9.06351 1.28953L0.700007 16.256C0.657479 16.3321 0.635571 16.418 0.636455 16.5051C0.637338 16.5922 0.660983 16.6776 0.705045 16.7528C0.749107 16.828 0.812055 16.8904 0.88765 16.9337C0.963244 16.9771 1.04886 17 1.13601 17H17.864C17.9512 17 18.0368 16.9771 18.1124 16.9337C18.188 16.8904 18.2509 16.828 18.295 16.7528C18.339 16.6776 18.3627 16.5922 18.3636 16.5051C18.3644 16.418 18.3425 16.3321 18.3 16.256L9.93651 1.28953C9.89312 1.21186 9.82979 1.14718 9.75306 1.10215C9.67633 1.05712 9.58897 1.03339 9.50001 1.03339C9.41104 1.03339 9.32369 1.05712 9.24695 1.10215C9.17022 1.14718 9.1069 1.21186 9.06351 1.28953ZM10.5 14.75C10.5 14.8163 10.4737 14.8799 10.4268 14.9268C10.3799 14.9737 10.3163 15 10.25 15H8.75001C8.6837 15 8.62011 14.9737 8.57323 14.9268C8.52635 14.8799 8.50001 14.8163 8.50001 14.75V13.25C8.50001 13.1837 8.52635 13.1201 8.57323 13.0732C8.62011 13.0264 8.6837 13 8.75001 13H10.25C10.3163 13 10.3799 13.0264 10.4268 13.0732C10.4737 13.1201 10.5 13.1837 10.5 13.25V14.75ZM10.5 11.75C10.5 11.8163 10.4737 11.8799 10.4268 11.9268C10.3799 11.9737 10.3163 12 10.25 12H8.75001C8.6837 12 8.62011 11.9737 8.57323 11.9268C8.52635 11.8799 8.50001 11.8163 8.50001 11.75V5.75003C8.50001 5.68372 8.52635 5.62013 8.57323 5.57325C8.62011 5.52637 8.6837 5.50003 8.75001 5.50003H10.25C10.3163 5.50003 10.3799 5.52637 10.4268 5.57325C10.4737 5.62013 10.5 5.68372 10.5 5.75003V11.75Z"/></symbol><symbol id="icon-x" viewBox="0 0 24 24"><path fill="none" stroke="none" d="M0 0h24v24H0z"/><path stroke="currentColor" d="M18 6l-12 12"/><path stroke="currentColor" d="M6 6l12 12"/></symbol><symbol id="icon-zoom-to" viewBox="0 0 18 18"><rect width="1" height="3" x="1" y="10"/><rect width="1" height="3" x="1" y="5"/><path d="M2,16V15H1v1.5555A.4445.4445,0,0,0,1.4445,17H3V16Z"/><rect width="3" height="1" x="5" y="16"/><rect width="1" height="3" x="16" y="5"/><path d="M16.5555,1H15V2h1V3h1V1.4445A.4445.4445,0,0,0,16.5555,1Z"/><rect width="3" height="1" x="10" y="1"/><rect width="3" height="1" x="5" y="1"/><path d="M3,1H1.5a.5.5,0,0,0-.5.5V3H2V2H3Z"/><path d="m17.208 15.743-2.5156-2.5156c2.6213-4.32-3.1024-8.7899-6.6634-5.2291-3.561 3.5608 0.90849 9.2848 5.2287 6.6637l2.5156 2.5156c0.38246 0.42804 1.0522 0.42804 1.4347 0 0.14994-0.15244 0.24725-0.34881 0.27772-0.56045 0.05141-0.31895-0.05165-0.64337-0.27771-0.87417zm-8.7442-4.6889c-2.14e-4 -2.3349 2.8225-3.5041 4.4735-1.8534 1.651 1.6507 0.48232 4.4736-1.8526 4.4738h-1.9e-4c-1.4473 1.7e-5 -2.6206-1.1732-2.6207-2.6204z"/></symbol></defs>
    </svg>